{
.appVersion = "3133";
.formatVersion = 3;
DisplayStrings = (
"/one.dnom/two.dnom/three.dnom/four.dnom/one.numr/two.numr/three.numr/four.numr 

⁄¹²½⅓⅔¼³¾
¹

/periodcentered.loclCAT/periodcentered.loclCAT.case"
);
axes = (
{
name = Weight;
tag = wght;
}
);
classes = (
{
automatic = 1;

glyphs = (
{
glyphname = A;
lastChange = "2022-10-14 13:55:51 +0000";
layers = (
{
anchors = (
{
name = bottom;
pos = (477,0);
},
{
name = btm;
pos = (477,-170);
},
{
name = ogonek;
pos = (859,10);
},
{
name = top;
pos = (477,1593);
}
);
layerId = master01;
shapes = (
{
closed = 1;
nodes = (
(202,0,l),
(436,898,l),
(476,1118,l),
(518,898,l),
(752,0,l),
(949,0,l),
(494,1612,l),
(459,1612,l),
(5,0,l)
);
},
{
closed = 1;
nodes = (
(754,265,l),
(754,431,l),
(209,431,l),
(209,265,l)
);
}
);
userData = {
com.typemytype.robofont.mark = (
0.967,
0.6,
1,
1
);
};
width = 954;
}
);
unicode = 65;
},
{
glyphname = Aogonek;
lastChange = "2022-10-14 13:55:51 +0000";
layers = (
{
layerId = master01;
shapes = (
{
closed = 1;
nodes = (
(237,0,l),
(464,852,l),
(504,1042,l),
(546,852,l),
(773,0,l),
(977,0,l),
(505,1642,l),
(33,0,l)
);
},
{
closed = 1;
nodes = (
(951,-365,l),
(826,-376,o),
(765,-316,o),
(755,-255,cs),
(734,-132,o),
(895,-25,o),
(977,0,c),
(899,67,l),
(818,45,l),
(638,-34,o),
(531,-170,o),
(557,-308,cs),
(585,-464,o),
(741,-534,o),
(950,-506,c)
);
},
{
closed = 1;
nodes = (
(782,265,l),
(782,441,l),
(237,441,l),
(237,265,l)
);
}
);
width = 1011;
}
);
unicode = 260;
},
{
glyphname = AE;
lastChange = "2022-10-14 13:55:51 +0000";
layers = (
{
anchors = (
{
name = top;
pos = (872,1700);
}
);
layerId = master01;
shapes = (
{
closed = 1;
nodes = (
(225,0,l),
(619,1144,l),
(619,0,l),
(823,0,l),
(648,1593,l),
(620,1593,l),
(21,0,l)
);
},
{
closed = 1;
nodes = (
(721,265,l),
(721,441,l),
(318,441,l),
(318,265,l)
);
},
{
closed = 1;
nodes = (
(1187,0,l),
(1187,176,l),
(830,176,l),
(830,629,l),
(1136,629,l),
(1136,805,l),
(830,805,l),
(830,1417,l),
(1187,1417,l),
(1187,1593,l),
(640,1593,l),
(640,0,l)
);
}
);
width = 1314;
}
);
unicode = 198;
},
{
glyphname = B;
lastChange = "2022-10-14 13:55:51 +0000";
layers = (
{
anchors = (
{
name = bottom;
pos = (468,0);
},
{
name = top;
pos = (468,1593);
}
);
layerId = master01;
shapes = (
{
closed = 1;
nodes = (
(210,-18,o),
(318,-16,o),
(348,-14,cs),
(722,11,o),
(837,230,o),
(837,431,cs),
(837,586,o),
(760,706,o),
(622,785,c),
(729,880,o),
(790,1009,o),
(790,1122,cs),
(790,1328,o),
(683,1561,o),
(324,1603,cs),
(294,1607,o),
(210,1612,o),
(178,1612,c),
(178,-18,l)
);
},
{
closed = 1;
nodes = (
(361,681,l),
(536,701,o),
(642,576,o),
(642,431,cs),
(642,267,o),
(516,172,o),
(361,172,c)
);
},
{
closed = 1;
nodes = (
(361,1418,l),
(462,1418,o),
(610,1341,o),
(610,1134,cs),
(610,971,o),
(482,818,o),
(361,838,c)
);
}
);
userData = {
com.typemytype.robofont.guides = (
{
angle = 90;
isGlobal = 0;
magnetic = 5;
x = 846;
y = 0;
}
);
com.typemytype.robofont.mark = (
0.967,
0.6,
1,
1
);
};
width = 936;
}
);
unicode = 66;
},
{
glyphname = C;
lastChange = "2022-10-14 13:55:51 +0000";
layers = (
{
anchors = (
{
name = btm;
pos = (441,-170);
},
{
name = top;
pos = (441,1700);
}
);
layerId = master01;
shapes = (
{
closed = 1;
nodes = (
(658,-19,o),
(718,-6,o),
(784,22,c),
(720,179,l),
(695,168,o),
(645,162,o),
(609,162,cs),
(438,162,o),
(289,335,o),
(289,796,cs),
(289,1257,o),
(438,1431,o),
(609,1431,cs),
(645,1431,o),
(715,1425,o),
(740,1414,c),
(784,1570,l),
(718,1598,o),
(658,1611,o),
(583,1611,cs),
(321,1611,o),
(97,1394,o),
(97,796,cs),
(97,208,o),
(321,-19,o),
(583,-19,cs)
);
}
);
userData = {
com.typemytype.robofont.guides = (
{
angle = 0;
isGlobal = 0;
magnetic = 5;
x = 0;
y = 796;
},
{
angle = 90;
isGlobal = 0;
magnetic = 5;
x = 801;
y = 0;
}
);
com.typemytype.robofont.mark = (
0.967,
0.6,
1,
1
);
};
width = 801;
}
);
unicode = 67;
},
{
glyphname = D;
lastChange = "2022-10-14 13:55:51 +0000";
layers = (
{
anchors = (
{
name = btm;
pos = (550,-170);
},
{
name = top;
pos = (550,1700);
}
);
layerId = master01;
shapes = (
{
closed = 1;
nodes = (
(246,-15,o),
(309,-2,o),
(370,10,cs),
(740,82,o),
(921,386,o),
(921,806,cs),
(921,1229,o),
(712,1526,o),
(363,1590,cs),
(304,1601,o),
(243,1608,o),
(178,1611,c),
(178,-19,l)
);
},
{
closed = 1;
nodes = (
(368,1405,l),
(543,1371,o),
(727,1220,o),
(727,806,cs),
(727,386,o),
(543,231,o),
(368,187,c)
);
}
);
userData = {
com.typemytype.robofont.mark = (
0.967,
0.6,
1,
1
);
};
width = 986;
}
);
unicode = 68;
},
{
glyphname = Eth;
lastChange = "2022-10-14 13:55:51 +0000";
layers = (
{
layerId = master01;
shapes = (
{
closed = 1;
nodes = (
(522,716,l),
(522,884,l),
(66,884,l),
(66,716,l)
);
},
{
ref = D;
}
);
width = 1017;
}
);
unicode = 208;
},
{
glyphname = Dcroat;
lastChange = "2022-10-14 13:55:51 +0000";
layers = (
{
layerId = master01;
shapes = (
{
closed = 1;
nodes = (
(507,716,l),
(507,884,l),
(60,884,l),
(60,716,l)
);
},
{
pos = (-5,0);
ref = D;
}
);
width = 987;
}
);
unicode = 272;
},
{
glyphname = E;
lastChange = "2022-10-14 13:55:51 +0000";
layers = (
{
anchors = (
{
name = bottom;
pos = (398,0);
},
{
name = btm;
pos = (432,-170);
},
{
name = ogonek;
pos = (705,0);
},
{
name = top;
pos = (432,1593);
},
{
name = topleft;
pos = (0,1593);
}
);
layerId = master01;
shapes = (
{
closed = 1;
nodes = (
(705,0,l),
(705,176,l),
(348,176,l),
(348,629,l),
(654,629,l),
(654,805,l),
(348,805,l),
(348,1417,l),
(705,1417,l),
(705,1593,l),
(158,1593,l),
(158,0,l)
);
}
);
userData = {
com.typemytype.robofont.mark = (
0.967,
0.6,
1,
1
);
};
width = 765;
}
);
metricLeft = H;
unicode = 69;
},
{
glyphname = Eogonek;
lastChange = "2022-10-14 13:55:51 +0000";
layers = (
{
layerId = master01;
shapes = (
{
closed = 1;
nodes = (
(725,0,l),
(725,176,l),
(368,176,l),
(368,629,l),
(674,629,l),
(674,805,l),
(368,805,l),
(368,1417,l),
(725,1417,l),
(725,1593,l),
(178,1593,l),
(178,0,l)
);
},
{
closed = 1;
nodes = (
(709,-365,l),
(584,-376,o),
(523,-316,o),
(513,-255,cs),
(493,-132,o),
(644,-25,o),
(725,0,c),
(647,67,l),
(566,45,l),
(386,-34,o),
(290,-170,o),
(315,-308,cs),
(344,-464,o),
(500,-534,o),
(708,-506,c)
);
}
);
width = 851;
}
);
unicode = 280;
},
{
glyphname = Schwa;
lastChange = "2022-10-14 13:55:51 +0000";
layers = (
{
layerId = master01;
shapes = (
{
closed = 1;
nodes = (
(734,-18,o),
(982,136,o),
(982,826,cs),
(982,1327,o),
(744,1611,o),
(424,1611,cs),
(344,1611,o),
(283,1598,o),
(202,1570,c),
(267,1392,l),
(324,1423,o),
(379,1429,o),
(420,1429,cs),
(615,1429,o),
(788,1217,o),
(788,824,cs),
(788,811,l),
(64,811,l),
(64,643,l),
(70,643,l),
(107,121,o),
(320,-18,o),
(525,-18,cs)
);
},
{
closed = 1;
nodes = (
(394,166,o),
(280,279,o),
(255,643,c),
(780,643,l),
(744,276,o),
(653,166,o),
(525,166,cs)
);
}
);
width = 1080;
}
);
metricLeft = "=|G";
metricRight = O;
unicode = 399;
},
{
glyphname = F;
lastChange = "2022-10-14 13:55:51 +0000";
layers = (
{
anchors = (
{
name = btm;
pos = (456,-170);
},
{
name = top;
pos = (456,1700);
}
);
layerId = master01;
shapes = (
{
closed = 1;
nodes = (
(368,0,l),
(368,567,l),
(682,567,l),
(682,743,l),
(368,743,l),
(368,1417,l),
(733,1417,l),
(733,1593,l),
(178,1594,l),
(178,0,l)
);
}
);
userData = {
com.typemytype.robofont.mark = (
0.967,
0.6,
1,
1
);
};
width = 772;
}
);
unicode = 70;
},
{
glyphname = G;
lastChange = "2022-10-14 13:55:51 +0000";
layers = (
{
anchors = (
{
name = bottom;
pos = (520,0);
},
{
name = btm;
pos = (471,-170);
},
{
name = top;
pos = (575,1700);
}
);
layerId = master01;
shapes = (
{
closed = 1;
nodes = (
(679,161,l),
(453,201,o),
(290,365,o),
(290,824,cs),
(290,1217,o),
(463,1429,o),
(658,1429,cs),
(699,1429,o),
(754,1423,o),
(791,1412,c),
(876,1570,l),
(795,1598,o),
(734,1611,o),
(654,1611,cs),
(334,1611,o),
(96,1327,o),
(96,826,cs),
(96,211,o),
(424,-35,o),
(868,-18,c)
);
},
{
closed = 1;
nodes = (
(868,643,l),
(869,643,l),
(869,811,l),
(592,811,l),
(592,643,l),
(679,643,l),
(679,110,l),
(868,-18,l)
);
}
);
userData = {
com.typemytype.robofont.mark = (
0.967,
0.6,
1,
1
);
};
width = 940;
}
);
unicode = 71;
},
{
glyphname = H;
lastChange = "2022-10-14 13:55:51 +0000";
layers = (
{
anchors = (
{
name = bottom;
pos = (527,0);
},
{
name = btm;
pos = (527,-170);
},
{
name = center;
pos = (527,797);
},
{
name = top;
pos = (527,1700);
},
{
name = topleft;
pos = (20,1593);
}
);
layerId = master01;
shapes = (
{
closed = 1;
nodes = (
(348,0,l),
(348,533,l),
(706,533,l),
(706,0,l),
(896,0,l),
(896,1593,l),
(706,1593,l),
(706,709,l),
(348,709,l),
(348,1593,l),
(158,1593,l),
(158,0,l)
);
}
);
userData = {
com.typemytype.robofont.mark = (
0.656,
1,
0.6,
1
);
};
width = 1054;
}
);
metricRight = "=|";
unicode = 72;
},
{
glyphname = Hbar;
lastChange = "2022-10-14 13:55:51 +0000";
layers = (
{
layerId = master01;
shapes = (
{
closed = 1;
nodes = (
(1045,851,l),
(1045,1019,l),
(44,1019,l),
(44,851,l)
);
},
{
pos = (20,0);
ref = H;
}
);
width = 1094;
}
);
unicode = 294;
},
{
glyphname = I;
lastChange = "2022-10-14 13:55:51 +0000";
layers = (
{
anchors = (
{
name = btm;
pos = (253,-170);
},
{
name = top;
pos = (253,1700);
}
);
layerId = master01;
shapes = (
{
closed = 1;
nodes = (
(348,0,l),
(348,1593,l),
(158,1593,l),
(158,0,l)
);
}
);
width = 506;
}
);
unicode = 73;
},
{
glyphname = IJ;
lastChange = "2022-10-14 13:55:51 +0000";
layers = (
{
layerId = master01;
shapes = (
{
closed = 1;
nodes = (
(579,80,o),
(841,322,o),
(841,798,cs),
(841,1593,l),
(655,1593,l),
(655,797,ls),
(655,503,o),
(530,284,o),
(171,156,c),
(171,-18,l)
);
},
{
closed = 1;
nodes = (
(356,480,l),
(356,1593,l),
(170,1593,l),
(170,480,l)
);
}
);
userData = {
com.typemytype.robofont.guides = (
{
angle = 90;
isGlobal = 0;
magnetic = 5;
x = 170;
y = 0;
}
);
};
width = 1011;
}
);
unicode = 306;
},
{
glyphname = Iogonek;
lastChange = "2022-10-14 13:55:51 +0000";
layers = (
{
layerId = master01;
shapes = (
{
closed = 1;
nodes = (
(368,0,l),
(368,1593,l),
(178,1593,l),
(178,0,l)
);
},
{
closed = 1;
nodes = (
(372,-365,l),
(248,-376,o),
(176,-316,o),
(166,-255,cs),
(146,-132,o),
(287,-25,o),
(368,0,c),
(310,67,l),
(229,54,l),
(50,-15,o),
(-57,-170,o),
(-32,-308,cs),
(-3,-464,o),
(163,-534,o),
(371,-506,c)
);
}
);
width = 547;
}
);
unicode = 302;
},
{
glyphname = J;
lastChange = "2022-10-14 13:55:51 +0000";
layers = (
{
anchors = (
{
name = btm;
pos = (194,-170);
},
{
name = top;
pos = (339,1700);
}
);
layerId = master01;
shapes = (
{
closed = 1;
nodes = (
(406,-142,o),
(439,42,o),
(439,248,cs),
(439,1593,l),
(252,1593,l),
(252,238,ls),
(252,89,o),
(198,-58,o),
(70,-145,c),
(172,-262,l)
);
}
);
width = 558;
}
);
unicode = 74;
},
{
glyphname = K;
lastChange = "2022-10-14 13:55:51 +0000";
layers = (
{
anchors = (
{
name = btm;
pos = (568,-170);
},
{
name = top;
pos = (568,1700);
}
);
layerId = master01;
shapes = (
{
closed = 1;
nodes = (
(924,1593,l),
(720,1593,l),
(348,739,l),
(492,625,l)
);
},
{
closed = 1;
nodes = (
(348,0,l),
(348,1593,l),
(158,1593,l),
(158,0,l)
);
},
{
closed = 1;
nodes = (
(979,0,l),
(514,833,l),
(348,739,l),
(760,0,l)
);
}
);
userData = {
com.typemytype.robofont.guides = (
{
angle = 0;
isGlobal = 0;
magnetic = 5;
x = 0;
y = 710;
}
);
com.typemytype.robofont.mark = (
0.656,
1,
0.6,
1
);
};
width = 973;
}
);
unicode = 75;
},
{
glyphname = L;
lastChange = "2022-10-14 13:55:51 +0000";
layers = (
{
anchors = (
{
name = bottom;
pos = (402,0);
},
{
name = btm;
pos = (462,-170);
},
{
name = center;
pos = (402,797);
},
{
name = top;
pos = (462,1700);
},
{
name = topright;
pos = (783,1593);
}
);
layerId = master01;
shapes = (
{
closed = 1;
nodes = (
(767,0,l),
(767,174,l),
(348,174,l),
(348,1593,l),
(158,1593,l),
(158,0,l)
);
}
);
userData = {
com.typemytype.robofont.mark = (
0.656,
1,
0.6,
1
);
};
width = 803;
}
);
unicode = 76;
},
{
glyphname = Lcaron;
lastChange = "2022-10-14 13:55:51 +0000";
layers = (
{
layerId = master01;
shapes = (
{
closed = 1;
nodes = (
(710,1201,o),
(745,1321,o),
(745,1425,cs),
(745,1537,o),
(676,1594,o),
(598,1594,cs),
(514,1594,o),
(468,1531,o),
(468,1460,cs),
(468,1393,o),
(508,1334,o),
(584,1328,c),
(569,1274,o),
(546,1181,o),
(499,1128,c),
(587,1063,l)
);
},
{
pos = (15,0);
ref = L;
}
);
width = 797;
}
);
unicode = 317;
},
{
glyphname = Lslash;
lastChange = "2022-10-14 13:55:51 +0000";
layers = (
{
layerId = master01;
shapes = (
{
closed = 1;
nodes = (
(640,971,l),
(547,1111,l),
(-22,740,l),
(71,600,l)
);
},
{
pos = (20,0);
ref = L;
}
);
width = 807;
}
);
unicode = 321;
},
{
glyphname = M;
lastChange = "2022-10-14 13:55:51 +0000";
layers = (
{
anchors = (
{
name = bottom;
pos = (628,0);
},
{
name = btm;
pos = (628,-170);
},
{
name = top;
pos = (628,1700);
}
);
layerId = master01;
shapes = (
{
closed = 1;
nodes = (
(348,0,l),
(348,750,l),
(332,997,l),
(450,747,l),
(628,431,l),
(628,429,l),
(628,430,l),
(629,429,l),
(629,431,l),
(805,746,l),
(923,997,l),
(908,748,l),
(908,0,l),
(1098,0,l),
(1098,1612,l),
(1055,1612,l),
(628,776,l),
(201,1612,l),
(158,1612,l),
(158,0,l)
);
}
);
userData = {
com.typemytype.robofont.guides = (
{
angle = 0;
isGlobal = 0;
magnetic = 5;
x = 0;
y = 747;
},
{
angle = 0;
isGlobal = 0;
magnetic = 5;
x = 0;
y = 948;
}
);
com.typemytype.robofont.mark = (
0.656,
1,
0.6,
1
);
};
width = 1256;
}
);
unicode = 77;
},
{
glyphname = N;
lastChange = "2022-10-14 13:55:51 +0000";
layers = (
{
anchors = (
{
name = bottom;
pos = (562,0);
},
{
name = top;
pos = (562,1593);
}
);
layerId = master01;
shapes = (
{
closed = 1;
nodes = (
(348,0,l),
(348,796,l),
(322,1030,l),
(463,796,l),
(941,0,l),
(965,0,l),
(965,1593,l),
(777,1593,l),
(777,816,l),
(802,555,l),
(659,819,l),
(183,1612,l),
(158,1612,l),
(158,0,l)
);
}
);
userData = {
com.typemytype.robofont.mark = (
0.656,
1,
0.6,
1
);
};
width = 1123;
}
);
unicode = 78;
},
{
glyphname = Eng;
lastChange = "2022-10-14 13:55:51 +0000";
layers = (
{
layerId = master01;
shapes = (
{
closed = 1;
nodes = (
(913,-404,o),
(985,-236,o),
(985,-30,cs),
(985,1593,l),
(797,1593,l),
(797,1281,l),
(795,1280,l),
(795,635,l),
(689,819,l),
(178,1654,l),
(178,0,l),
(368,0,l),
(368,796,l),
(362,970,l),
(473,796,l),
(795,272,l),
(795,-10,ls),
(795,-159,o),
(743,-256,o),
(616,-343,c),
(718,-510,l)
);
}
);
width = 1163;
}
);
unicode = 330;
},
{
glyphname = O;
lastChange = "2022-10-14 13:55:51 +0000";
layers = (
{
anchors = (
{
name = bottom;
pos = (540,0);
},
{
name = btm;
pos = (539,-170);
},
{
name = center;
pos = (540,797);
},
{
name = ogonek;
pos = (972,10);
},
{
name = top;
pos = (539,1593);
},
{
name = topleft;
pos = (20,1593);
},
{
name = topright;
pos = (654,1593);
}
);
layerId = master01;
shapes = (
{
closed = 1;
nodes = (
(733,-19,o),
(982,135,o),
(982,796,cs),
(982,1457,o),
(733,1611,o),
(539,1611,cs),
(346,1611,o),
(97,1457,o),
(97,796,cs),
(97,135,o),
(346,-19,o),
(539,-19,cs)
);
},
{
closed = 1;
nodes = (
(425,165,o),
(294,311,o),
(294,796,cs),
(294,1281,o),
(425,1427,o),
(539,1427,cs),
(654,1427,o),
(785,1281,o),
(785,796,cs),
(785,311,o),
(654,165,o),
(539,165,cs)
);
}
);
userData = {
com.typemytype.robofont.guides = (
{
angle = 90;
isGlobal = 0;
magnetic = 5;
x = 542;
y = 0;
}
);
};
width = 1080;
}
);
unicode = 79;
},
{
glyphname = Oslash;
lastChange = "2022-10-14 13:55:51 +0000";
layers = (
{
layerId = master01;
shapes = (
{
closed = 1;
nodes = (
(412,148,l),
(286,270,l),
(148,-89,l),
(300,-137,l)
);
},
{
ref = O;
},
{
closed = 1;
nodes = (
(898,1661,l),
(746,1709,l),
(636,1430,l),
(761,1305,l)
);
}
);
width = 1059;
}
);
unicode = 216;
},
{
glyphname = OE;
lastChange = "2022-10-14 13:55:51 +0000";
layers = (
{
layerId = master01;
shapes = (
{
closed = 1;
nodes = (
(733,-18,o),
(945,130,o),
(945,791,cs),
(945,1455,o),
(750,1612,o),
(545,1612,cs),
(340,1612,o),
(97,1454,o),
(97,791,cs),
(97,130,o),
(346,-18,o),
(539,-18,cs)
);
},
{
closed = 1;
nodes = (
(425,165,o),
(294,304,o),
(294,789,cs),
(294,1283,o),
(423,1437,o),
(545,1437,cs),
(666,1437,o),
(789,1283,o),
(789,789,cs),
(789,304,o),
(654,165,o),
(539,165,cs)
);
},
{
closed = 1;
nodes = (
(1335,0,l),
(1335,176,l),
(978,176,l),
(978,629,l),
(1284,629,l),
(1284,805,l),
(978,805,l),
(978,1417,l),
(1335,1417,l),
(1335,1593,l),
(617,1593,l),
(788,1426,l),
(788,153,l),
(598,0,l)
);
}
);
width = 1455;
}
);
unicode = 338;
},
{
glyphname = P;
lastChange = "2022-10-14 13:55:51 +0000";
layers = (
{
anchors = (
{
name = btm;
pos = (501,-170);
},
{
name = top;
pos = (501,1700);
}
);
layerId = master01;
shapes = (
{
closed = 1;
nodes = (
(348,0,l),
(348,476,l),
(686,521,o),
(845,750,o),
(845,1051,cs),
(845,1414,o),
(625,1633,o),
(158,1613,c),
(158,0,l)
);
},
{
closed = 1;
nodes = (
(348,1417,l),
(522,1402,o),
(648,1300,o),
(648,1051,cs),
(648,812,o),
(522,680,o),
(348,665,c)
);
}
);
userData = {
com.typemytype.robofont.mark = (
0.656,
1,
0.6,
1
);
};
width = 943;
}
);
unicode = 80;
},
{
glyphname = Thorn;
lastChange = "2022-10-14 13:55:51 +0000";
layers = (
{
layerId = master01;
shapes = (
{
closed = 1;
nodes = (
(348,0,l),
(348,250,l),
(686,295,o),
(845,504,o),
(845,805,cs),
(845,1158,o),
(624,1387,o),
(158,1367,c),
(158,0,l)
);
},
{
closed = 1;
nodes = (
(348,0,l),
(348,1593,l),
(158,1593,l),
(158,0,l)
);
},
{
closed = 1;
nodes = (
(348,1181,l),
(521,1166,o),
(648,1044,o),
(648,805,cs),
(648,566,o),
(521,444,o),
(348,429,c)
);
}
);
userData = {
com.typemytype.robofont.mark = (
0.656,
1,
0.6,
1
);
};
width = 986;
}
);
unicode = 222;
},
{
glyphname = Q;
lastChange = "2022-10-14 13:55:51 +0000";
layers = (
{
anchors = (
{
name = center;
pos = (540,797);
}
);
layerId = master01;
shapes = (
{
closed = 1;
nodes = (
(733,-19,o),
(982,135,o),
(982,796,cs),
(982,1457,o),
(733,1611,o),
(539,1611,cs),
(346,1611,o),
(97,1457,o),
(97,796,cs),
(97,135,o),
(346,-19,o),
(539,-19,cs)
);
},
{
closed = 1;
nodes = (
(993,34,l),
(580,491,l),
(448,384,l),
(861,-73,l)
);
},
{
closed = 1;
nodes = (
(425,165,o),
(294,311,o),
(294,796,cs),
(294,1281,o),
(425,1427,o),
(539,1427,cs),
(654,1427,o),
(785,1281,o),
(785,796,cs),
(785,311,o),
(654,165,o),
(539,165,cs)
);
}
);
width = 1136;
}
);
unicode = 81;
},
{
glyphname = R;
lastChange = "2022-10-14 13:55:51 +0000";
layers = (
{
anchors = (
{
name = bottom;
pos = (475,0);
},
{
name = btm;
pos = (531,-170);
},
{
name = top;
pos = (409,1700);
}
);
layerId = master01;
shapes = (
{
closed = 1;
nodes = (
(348,0,l),
(348,516,l),
(686,559,o),
(845,770,o),
(845,1061,cs),
(845,1402,o),
(625,1633,o),
(158,1613,c),
(158,0,l)
);
},
{
closed = 1;
nodes = (
(903,0,l),
(592,669,l),
(426,609,l),
(689,0,l)
);
},
{
closed = 1;
nodes = (
(348,1417,l),
(522,1402,o),
(648,1288,o),
(648,1061,cs),
(648,834,o),
(522,720,o),
(348,705,c)
);
}
);
userData = {
com.typemytype.robofont.guides = (
{
angle = 0;
isGlobal = 0;
magnetic = 5;
x = 0;
y = 1065;
},
{
angle = 90;
isGlobal = 0;
magnetic = 5;
x = 845;
y = 0;
}
);
com.typemytype.robofont.mark = (
0.656,
1,
0.6,
1
);
};
width = 949;
}
);
unicode = 82;
},
{
glyphname = S;
lastChange = "2022-10-14 13:55:51 +0000";
layers = (
{
anchors = (
{
name = bottom;
pos = (452,0);
},
{
name = top;
pos = (482,1593);
}
);
layerId = master01;
shapes = (
{
closed = 1;
nodes = (
(630,-19,o),
(797,128,o),
(797,367,cs),
(797,531,o),
(719,639,o),
(620,767,cs),
(429,1013,ls),
(338,1130,o),
(316,1195,o),
(316,1257,cs),
(316,1369,o),
(389,1435,o),
(500,1435,cs),
(566,1435,o),
(620,1411,o),
(668,1383,c),
(750,1538,l),
(663,1588,o),
(570,1611,o),
(480,1611,cs),
(255,1611,o),
(119,1464,o),
(119,1264,cs),
(119,1145,o),
(168,1017,o),
(299,854,cs),
(430,691,ls),
(557,533,o),
(600,440,o),
(600,352,cs),
(600,221,o),
(506,164,o),
(399,164,cs),
(312,164,o),
(241,201,o),
(174,239,c),
(87,73,l),
(165,20,o),
(279,-19,o),
(399,-19,cs)
);
}
);
width = 883;
}
);
unicode = 83;
},
{
glyphname = Germandbls;
lastChange = "2022-10-14 13:55:51 +0000";
layers = (
{
layerId = master01;
shapes = (
{
closed = 1;
nodes = (
(368,0,l),
(368,1127,ls),
(368,1348,o),
(438,1409,o),
(561,1409,c),
(816,1409,l),
(592,818,l),
(781,818,l),
(1085,1593,l),
(561,1593,l),
(321,1593,o),
(178,1472,o),
(178,1150,cs),
(178,0,l)
);
},
{
closed = 1;
nodes = (
(969,-19,o),
(1136,128,o),
(1136,367,cs),
(1136,531,o),
(1086,688,o),
(887,843,cs),
(781,925,l),
(592,818,l),
(727,721,ls),
(934,572,o),
(939,440,o),
(939,352,cs),
(939,221,o),
(845,164,o),
(758,164,cs),
(681,164,o),
(610,201,o),
(543,239,c),
(456,73,l),
(534,20,o),
(648,-19,o),
(758,-19,cs)
);
}
);
width = 1235;
}
);
metricLeft = "=|U";
metricRight = B;
unicode = 7838;
},
{
glyphname = T;
lastChange = "2022-10-14 13:55:51 +0000";
layers = (
{
anchors = (
{
name = btm;
pos = (370,-170);
},
{
name = top;
pos = (370,1700);
}
);
layerId = master01;
shapes = (
{
closed = 1;
nodes = (
(465,0,l),
(465,1417,l),
(720,1417,l),
(720,1593,l),
(20,1593,l),
(20,1417,l),
(275,1417,l),
(275,0,l)
);
}
);
width = 740;
}
);
unicode = 84;
},
{
glyphname = Tbar;
lastChange = "2022-10-14 13:55:51 +0000";
layers = (
{
layerId = master01;
shapes = (
{
closed = 1;
nodes = (
(659,854,l),
(659,1022,l),
(172,1022,l),
(172,854,l)
);
},
{
pos = (51,0);
ref = T;
}
);
width = 825;
}
);
unicode = 358;
},
{
glyphname = U;
lastChange = "2022-10-14 13:55:51 +0000";
layers = (
{
anchors = (
{
name = bottom;
pos = (560,0);
},
{
name = ogonek;
pos = (707,10);
},
{
name = top;
pos = (559,1700);
},
{
name = topright;
pos = (810,1593);
}
);
layerId = master01;
shapes = (
{
closed = 1;
nodes = (
(799,-19,o),
(941,121,o),
(941,443,cs),
(941,1593,l),
(752,1593,l),
(752,466,ls),
(752,245,o),
(681,165,o),
(559,165,cs),
(436,165,o),
(366,245,o),
(366,466,cs),
(366,1593,l),
(176,1593,l),
(176,443,ls),
(176,121,o),
(319,-19,o),
(559,-19,cs)
);
}
);
width = 1119;
}
);
unicode = 85;
},
{
glyphname = Uogonek;
lastChange = "2022-10-14 13:55:51 +0000";
layers = (
{
layerId = master01;
shapes = (
{
closed = 1;
nodes = (
(799,-19,o),
(941,121,o),
(941,443,cs),
(941,1593,l),
(752,1593,l),
(752,466,ls),
(752,245,o),
(681,165,o),
(559,165,cs),
(436,165,o),
(366,245,o),
(366,466,cs),
(366,1593,l),
(176,1593,l),
(176,443,ls),
(176,121,o),
(319,-19,o),
(559,-19,cs)
);
},
{
closed = 1;
nodes = (
(787,-365,l),
(663,-376,o),
(602,-316,o),
(591,-255,cs),
(571,-132,o),
(627,-55,o),
(788,53,c),
(658,53,l),
(482,0,o),
(368,-170,o),
(394,-308,cs),
(422,-464,o),
(578,-534,o),
(786,-506,c)
);
}
);
width = 1119;
}
);
unicode = 370;
},
{
glyphname = V;
lastChange = "2022-10-14 13:55:51 +0000";
layers = (
{
anchors = (
{
name = btm;
pos = (477,-170);
},
{
name = top;
pos = (477,1700);
}
);
layerId = master01;
shapes = (
{
closed = 1;
nodes = (
(491,-30,l),
(949,1593,l),
(745,1593,l),
(521,741,l),
(476,500,l),
(433,741,l),
(209,1593,l),
(5,1593,l),
(463,-30,l)
);
}
);
userData = {
com.typemytype.robofont.guides = (
{
angle = 90;
isGlobal = 0;
magnetic = 5;
x = 476;
y = 0;
}
);
};
width = 954;
}
);
unicode = 86;
},
{
glyphname = W;
lastChange = "2022-10-14 13:55:51 +0000";
layers = (
{
anchors = (
{
name = btm;
pos = (590,-170);
},
{
name = top;
pos = (590,1700);
}
);
layerId = master01;
shapes = (
{
closed = 1;
nodes = (
(500,418,l),
(610,835,l),
(721,418,l),
(887,-49,l),
(1236,1593,l),
(1032,1593,l),
(886,836,l),
(846,531,l),
(725,992,l),
(610,1318,l),
(501,992,l),
(374,531,l),
(335,836,l),
(189,1593,l),
(-15,1593,l),
(334,-49,l)
);
}
);
userData = {
com.typemytype.robofont.guides = (
{
angle = 0;
isGlobal = 0;
magnetic = 5;
x = 0;
y = 466;
},
{
angle = 0;
isGlobal = 0;
magnetic = 5;
x = 0;
y = 536;
},
{
angle = 0;
isGlobal = 0;
magnetic = 5;
x = 0;
y = 418;
}
);
};
width = 1221;
}
);
unicode = 87;
},
{
glyphname = X;
lastChange = "2022-10-14 13:55:51 +0000";
layers = (
{
anchors = (
{
name = btm;
pos = (424,-170);
},
{
name = top;
pos = (424,1700);
}
);
layerId = master01;
shapes = (
{
closed = 1;
nodes = (
(848,0,l),
(487,879,l),
(464,911,l),
(231,1593,l),
(31,1593,l),
(369,726,l),
(391,694,l),
(648,0,l)
);
},
{
closed = 1;
nodes = (
(210,0,l),
(463,758,l),
(519,773,l),
(817,1593,l),
(617,1593,l),
(386,840,l),
(349,862,l),
(10,0,l)
);
}
);
width = 858;
}
);
unicode = 88;
},
{
glyphname = Y;
lastChange = "2022-10-14 13:55:51 +0000";
layers = (
{
anchors = (
{
name = bottom;
pos = (438,0);
},
{
name = btm;
pos = (437,-170);
},
{
name = top;
pos = (437,1700);
},
{
name = topleft;
pos = (20,1593);
}
);
layerId = master01;
shapes = (
{
closed = 1;
nodes = (
(531,0,l),
(531,536,l),
(870,1594,l),
(666,1594,l),
(437,808,l),
(209,1594,l),
(5,1594,l),
(341,543,l),
(341,0,l)
);
}
);
width = 875;
}
);
unicode = 89;
},
{
glyphname = Z;
lastChange = "2022-10-14 13:55:51 +0000";
layers = (
{
anchors = (
{
name = bottom;
pos = (440,0);
},
{
name = btm;
pos = (473,-170);
},
{
name = center;
pos = (440,797);
},
{
name = top;
pos = (473,1700);
}
);
layerId = master01;
shapes = (
{
closed = 1;
nodes = (
(829,0,l),
(829,176,l),
(371,176,l),
(829,1593,l),
(154,1593,l),
(154,1417,l),
(576,1417,l),
(118,0,l)
);
}
);
userData = {
com.typemytype.robofont.guides = (
{
angle = 90;
isGlobal = 0;
magnetic = 5;
x = 120;
y = 0;
},
{
angle = 90;
isGlobal = 0;
magnetic = 5;
x = 823;
y = 0;
}
);
};
width = 879;
}
);
unicode = 90;
},
{
glyphname = a;
lastChange = "2022-10-14 13:55:51 +0000";
layers = (
{
anchors = (
{
name = bottom;
pos = (378,0);
},
{
name = ogonek;
pos = (711,10);
},
{
name = top;
pos = (398,1062);
}
);
layerId = master01;
shapes = (
{
closed = 1;
nodes = (
(711,-19,l),
(711,719,ls),
(711,965,o),
(611,1081,o),
(384,1081,cs),
(260,1081,o),
(140,1051,o),
(67,1007,c),
(136,847,l),
(188,881,o),
(283,912,o),
(362,912,cs),
(496,912,o),
(531,849,o),
(531,712,cs),
(531,130,l),
(595,-19,l)
);
},
{
closed = 1;
nodes = (
(537,-19,o),
(604,179,o),
(604,247,c),
(537,247,l),
(532,201,o),
(462,145,o),
(390,145,cs),
(250,145,o),
(215,223,o),
(215,322,cs),
(215,449,o),
(313,531,o),
(512,531,c),
(661,531,l),
(661,690,l),
(532,691,l),
(187,691,o),
(30,540,o),
(30,325,cs),
(30,129,o),
(142,-19,o),
(335,-19,cs)
);
}
);
userData = {
com.typemytype.robofont.guides = (
{
angle = 0;
isGlobal = 0;
magnetic = 5;
x = 0;
y = 303;
},
{
angle = 90;
isGlobal = 0;
magnetic = 5;
x = 649;
y = 0;
},
{
angle = 90;
isGlobal = 0;
magnetic = 5;
x = 413;
y = 0;
},
{
angle = 90;
isGlobal = 0;
magnetic = 5;
x = -694;
y = 0;
}
);
com.typemytype.robofont.mark = (
0.967,
0.6,
1,
1
);
};
width = 796;
}
);
unicode = 97;
},
{
glyphname = aogonek;
lastChange = "2022-10-14 13:55:51 +0000";
layers = (
{
layerId = master01;
shapes = (
{
closed = 1;
nodes = (
(752,719,ls),
(752,945,o),
(622,1081,o),
(425,1081,cs),
(350,1081,o),
(248,1061,o),
(163,1019,c),
(232,859,l),
(290,891,o),
(349,912,o),
(403,912,cs),
(507,912,o),
(572,836,o),
(572,712,cs),
(572,68,l),
(752,-19,l)
);
},
{
closed = 1;
nodes = (
(753,-365,l),
(628,-376,o),
(567,-316,o),
(557,-255,cs),
(536,-132,o),
(672,-44,o),
(754,-19,c),
(701,67,l),
(620,45,l),
(441,-34,o),
(333,-170,o),
(359,-308,cs),
(387,-464,o),
(544,-534,o),
(752,-506,c)
);
},
{
closed = 1;
nodes = (
(598,-19,o),
(725,109,o),
(725,267,c),
(598,247,l),
(593,201,o),
(523,156,o),
(451,156,cs),
(359,156,o),
(296,230,o),
(296,329,cs),
(296,457,o),
(400,534,o),
(573,531,c),
(722,531,l),
(722,690,l),
(572,691,l),
(270,676,o),
(111,547,o),
(111,332,cs),
(111,136,o),
(244,-19,o),
(429,-19,cs)
);
}
);
width = 907;
}
);
unicode = 261;
},
{
glyphname = ae;
lastChange = "2022-10-14 13:55:51 +0000";
layers = (
{
anchors = (
{
name = top;
pos = (686,1700);
}
);
layerId = master01;
shapes = (
{
closed = 1;
nodes = (
(1057,-19,o),
(1165,13,o),
(1227,53,c),
(1158,205,l),
(1128,181,o),
(1052,150,o),
(1001,150,cs),
(880,150,o),
(752,244,o),
(752,533,cs),
(752,781,o),
(838,906,o),
(939,906,cs),
(1028,906,o),
(1087,850,o),
(1075,623,c),
(720,623,l),
(720,456,l),
(1242,455,l),
(1311,833,o),
(1186,1081,o),
(952,1081,cs),
(750,1081,o),
(576,905,o),
(576,527,cs),
(576,187,o),
(739,-19,o),
(979,-19,cs)
);
},
{
closed = 1;
nodes = (
(571,-19,o),
(681,61,o),
(752,157,c),
(604,277,l),
(579,191,o),
(523,156,o),
(441,156,cs),
(365,156,o),
(296,218,o),
(296,329,cs),
(296,455,o),
(399,534,o),
(573,531,c),
(722,531,l),
(722,690,l),
(572,691,l),
(270,676,o),
(111,547,o),
(111,332,cs),
(111,136,o),
(244,-19,o),
(429,-19,cs)
);
},
{
closed = 1;
nodes = (
(752,510,l),
(752,719,ls),
(752,945,o),
(622,1081,o),
(425,1081,cs),
(350,1081,o),
(248,1061,o),
(163,1019,c),
(232,859,l),
(290,891,o),
(349,912,o),
(403,912,cs),
(507,912,o),
(572,836,o),
(572,712,cs),
(572,555,l),
(572,150,l)
);
}
);
width = 1358;
}
);
unicode = 230;
},
{
glyphname = b;
lastChange = "2022-10-14 13:55:51 +0000";
layers = (
{
anchors = (
{
name = btm;
pos = (501,-170);
},
{
name = top;
pos = (594,1700);
}
);
layerId = master01;
shapes = (
{
closed = 1;
nodes = (
(690,-19,o),
(869,156,o),
(869,541,cs),
(869,926,o),
(690,1081,o),
(480,1081,cs),
(343,1081,o),
(230,992,o),
(186,843,c),
(290,807,l),
(328,874,o),
(393,913,o),
(468,913,cs),
(579,913,o),
(684,839,o),
(684,541,cs),
(684,243,o),
(579,149,o),
(468,149,cs),
(393,149,o),
(328,188,o),
(290,255,c),
(186,219,l),
(230,70,o),
(343,-19,o),
(480,-19,cs)
);
},
{
closed = 1;
nodes = (
(234,-19,l),
(316,110,l),
(316,1593,l),
(135,1593,l),
(135,-19,l)
);
}
);
userData = {
com.typemytype.robofont.guides = (
{
angle = 90;
isGlobal = 0;
magnetic = 5;
x = 467;
y = 0;
}
);
com.typemytype.robofont.mark = (
0.967,
0.6,
1,
1
);
};
width = 965;
}
);
unicode = 98;
},
{
glyphname = c;
lastChange = "2022-10-14 13:55:51 +0000";
layers = (
{
anchors = (
{
name = btm;
pos = (406,-170);
},
{
name = top;
pos = (406,1700);
}
);
layerId = master01;
shapes = (
{
closed = 1;
nodes = (
(576,-19,o),
(657,10,o),
(716,45,c),
(639,200,l),
(601,177,o),
(547,156,o),
(494,156,cs),
(387,156,o),
(282,258,o),
(282,531,c),
(282,804,o),
(387,906,o),
(494,906,cs),
(547,906,o),
(601,885,o),
(639,862,c),
(716,1017,l),
(657,1052,o),
(576,1081,o),
(494,1081,cs),
(268,1081,o),
(97,899,o),
(97,531,cs),
(97,163,o),
(268,-19,o),
(494,-19,cs)
);
}
);
userData = {
com.typemytype.robofont.guides = (
{
angle = 0;
isGlobal = 0;
magnetic = 5;
x = 0;
y = 1180;
}
);
com.typemytype.robofont.mark = (
0.967,
0.6,
1,
1
);
};
width = 764;
}
);
unicode = 99;
},
{
glyphname = d;
lastChange = "2022-10-14 13:55:51 +0000";
layers = (
{
anchors = (
{
name = btm;
pos = (465,-170);
},
{
name = top;
pos = (352,1700);
}
);
layerId = master01;
shapes = (
{
closed = 1;
nodes = (
(625,-19,o),
(738,70,o),
(782,219,c),
(678,255,l),
(640,188,o),
(575,149,o),
(500,149,cs),
(389,149,o),
(284,223,o),
(284,521,cs),
(284,819,o),
(389,913,o),
(500,913,cs),
(575,913,o),
(640,874,o),
(678,807,c),
(782,843,l),
(738,992,o),
(625,1081,o),
(488,1081,cs),
(277,1081,o),
(99,906,o),
(99,521,cs),
(99,136,o),
(277,-19,o),
(488,-19,cs)
);
},
{
closed = 1;
nodes = (
(835,1593,l),
(653,1593,l),
(653,104,l),
(835,-23,l)
);
}
);
userData = {
com.typemytype.robofont.guides = (
{
angle = 0;
isGlobal = 0;
magnetic = 5;
x = 0;
y = 1909;
}
);
com.typemytype.robofont.mark = (
0.967,
0.6,
1,
1
);
};
width = 962;
}
);
unicode = 100;
},
{
glyphname = eth;
lastChange = "2022-10-14 13:55:51 +0000";
layers = (
{
layerId = master01;
shapes = (
{
closed = 1;
nodes = (
(718,-19,o),
(869,183,o),
(869,590,cs),
(869,989,o),
(715,1385,o),
(401,1612,c),
(316,1475,l),
(499,1333,o),
(624,1103,o),
(642,930,c),
(579,976,o),
(543,992,o),
(463,992,cs),
(278,992,o),
(99,824,o),
(99,491,cs),
(99,151,o),
(264,-19,o),
(476,-19,cs)
);
},
{
closed = 1;
nodes = (
(384,153,o),
(284,238,o),
(284,491,cs),
(284,736,o),
(384,819,o),
(476,819,cs),
(576,819,o),
(668,732,o),
(668,491,cs),
(668,238,o),
(568,153,o),
(476,153,cs)
);
},
{
closed = 1;
nodes = (
(859,1424,l),
(773,1543,l),
(293,1225,l),
(377,1106,l)
);
}
);
userData = {
com.typemytype.robofont.guides = (
{
angle = 90;
isGlobal = 0;
magnetic = 5;
x = 869;
y = 0;
}
);
};
width = 969;
}
);
unicode = 240;
},
{
glyphname = dcaron;
lastChange = "2022-10-14 13:55:51 +0000";
layers = (
{
layerId = master01;
shapes = (
{
closed = 1;
nodes = (
(1166,1201,o),
(1201,1321,o),
(1201,1425,cs),
(1201,1537,o),
(1132,1594,o),
(1054,1594,cs),
(970,1594,o),
(924,1531,o),
(924,1460,cs),
(924,1393,o),
(964,1334,o),
(1040,1328,c),
(1025,1274,o),
(1002,1181,o),
(955,1128,c),
(1043,1063,l)
);
},
{
pos = (-5,0);
ref = d;
}
);
width = 1195;
}
);
unicode = 271;
},
{
glyphname = e;
lastChange = "2022-10-14 13:55:51 +0000";
layers = (
{
anchors = (
{
name = bottom;
pos = (457,0);
},
{
name = ogonek;
pos = (665,10);
},
{
name = top;
pos = (477,1062);
}
);
layerId = master01;
shapes = (
{
closed = 1;
nodes = (
(598,-19,o),
(707,15,o),
(771,53,c),
(701,205,l),
(665,180,o),
(588,150,o),
(517,150,cs),
(394,150,o),
(255,244,o),
(255,540,cs),
(255,781,o),
(348,906,o),
(471,906,cs),
(560,906,o),
(634,847,o),
(619,623,c),
(224,623,l),
(224,456,l),
(786,455,l),
(858,833,o),
(726,1081,o),
(475,1081,cs),
(263,1081,o),
(70,899,o),
(70,538,cs),
(70,187,o),
(251,-19,o),
(496,-19,cs)
);
}
);
userData = {
com.typemytype.robofont.mark = (
0.967,
0.6,
1,
1
);
};
width = 874;
}
);
metricLeft = "=o";
unicode = 101;
},
{
glyphname = eogonek;
lastChange = "2022-10-14 13:55:51 +0000";
layers = (
{
layerId = master01;
shapes = (
{
closed = 1;
nodes = (
(597,-19,o),
(698,15,o),
(758,53,c),
(688,205,l),
(656,180,o),
(587,150,o),
(524,150,cs),
(411,150,o),
(282,244,o),
(282,540,cs),
(282,781,o),
(367,906,o),
(478,906,cs),
(555,906,o),
(619,847,o),
(606,623,c),
(251,623,l),
(251,456,l),
(773,455,l),
(841,833,o),
(717,1081,o),
(482,1081,cs),
(280,1081,o),
(97,899,o),
(97,538,cs),
(97,187,o),
(270,-19,o),
(503,-19,cs)
);
},
{
closed = 1;
nodes = (
(757,-365,l),
(632,-376,o),
(571,-316,o),
(561,-255,cs),
(540,-132,o),
(594,-55,o),
(758,53,c),
(627,53,l),
(452,0,o),
(338,-170,o),
(363,-308,cs),
(392,-464,o),
(548,-534,o),
(756,-506,c)
);
}
);
width = 889;
}
);
unicode = 281;
},
{
glyphname = schwa;
lastChange = "2022-10-14 13:55:51 +0000";
layers = (
{
layerId = master01;
shapes = (
{
closed = 1;
nodes = (
(611,-19,o),
(804,163,o),
(804,524,cs),
(804,875,o),
(623,1081,o),
(378,1081,cs),
(276,1081,o),
(167,1047,o),
(103,1009,c),
(173,857,l),
(209,882,o),
(286,912,o),
(357,912,cs),
(480,912,o),
(619,818,o),
(619,522,cs),
(619,281,o),
(526,156,o),
(403,156,cs),
(314,156,o),
(240,215,o),
(255,439,c),
(650,439,l),
(650,606,l),
(88,607,l),
(16,229,o),
(148,-19,o),
(399,-19,cs)
);
}
);
width = 874;
}
);
metricLeft = "=|e";
metricRight = "=|e";
unicode = 601;
},
{
glyphname = f;
lastChange = "2022-10-14 13:55:51 +0000";
layers = (
{
anchors = (
{
name = btm;
pos = (306,-170);
},
{
name = top;
pos = (260,2020);
}
);
layerId = master01;
shapes = (
{
closed = 1;
nodes = (
(345,0,l),
(345,1280,ls),
(345,1362,o),
(404,1447,o),
(532,1437,c),
(532,1612,l),
(308,1624,o),
(163,1468,o),
(163,1282,cs),
(163,0,l)
);
},
{
closed = 1;
nodes = (
(526,894,l),
(526,1062,l),
(80,1062,l),
(80,894,l)
);
}
);
userData = {
com.typemytype.robofont.mark = (
0.967,
0.6,
1,
1
);
};
width = 560;
}
);
unicode = 102;
},
{
glyphname = g;
lastChange = "2022-10-14 13:55:51 +0000";
layers = (
{
anchors = (
{
name = btm;
pos = (461,-170);
},
{
name = top;
pos = (461,1700);
}
);
layerId = master01;
shapes = (
{
closed = 1;
nodes = (
(692,-345,o),
(816,-140,o),
(816,43,cs),
(816,1082,l),
(696,1081,l),
(634,966,l),
(634,43,ls),
(634,-75,o),
(564,-194,o),
(294,-220,c),
(383,-364,l)
);
},
{
closed = 1;
nodes = (
(615,20,o),
(723,106,o),
(770,258,c),
(666,294,l),
(628,227,o),
(563,188,o),
(488,188,cs),
(377,188,o),
(272,260,o),
(272,542,cs),
(272,824,o),
(377,916,o),
(488,916,cs),
(563,916,o),
(628,877,o),
(666,810,c),
(770,846,l),
(723,998,o),
(615,1084,o),
(468,1084,cs),
(269,1084,o),
(87,913,o),
(87,542,cs),
(87,171,o),
(269,20,o),
(468,20,cs)
);
}
);
userData = {
com.typemytype.robofont.guides = (
{
angle = 90;
isGlobal = 0;
magnetic = 5;
x = 508;
y = 0;
}
);
com.typemytype.robofont.mark = (
0.967,
0.6,
1,
1
);
};
width = 969;
}
);
unicode = 103;
},
{
glyphname = h;
lastChange = "2022-10-14 13:55:51 +0000";
layers = (
{
anchors = (
{
name = bottom;
pos = (506,0);
},
{
name = center;
pos = (506,1010);
},
{
name = top;
pos = (235,1593);
}
);
layerId = master01;
shapes = (
{
closed = 1;
nodes = (
(875,0,l),
(875,688,ls),
(875,939,o),
(763,1078,o),
(547,1078,cs),
(434,1078,o),
(308,1000,o),
(261,917,c),
(296,741,l),
(351,848,o),
(446,897,o),
(526,897,cs),
(636,897,o),
(693,822,o),
(693,686,cs),
(693,0,l)
);
},
{
closed = 1;
nodes = (
(334,0,l),
(334,1593,l),
(153,1593,l),
(153,0,l)
);
}
);
userData = {
com.typemytype.robofont.mark = (
0.967,
0.6,
1,
1
);
};
width = 1012;
}
);
unicode = 104;
},
{
glyphname = hbar;
lastChange = "2022-10-14 13:55:51 +0000";
layers = (
{
layerId = master01;
shapes = (
{
closed = 1;
nodes = (
(464,1230,l),
(464,1388,l),
(37,1388,l),
(37,1230,l)
);
},
{
pos = (-5,0);
ref = h;
}
);
width = 1008;
}
);
unicode = 295;
},
{
glyphname = i;
lastChange = "2022-10-14 13:55:51 +0000";
layers = (
{
anchors = (
{
name = btm;
pos = (269,-170);
},
{
name = top;
pos = (269,1700);
}
);
layerId = master01;
shapes = (
{
closed = 1;
nodes = (
(354,0,l),
(354,1062,l),
(172,1062,l),
(172,0,l)
);
},
{
closed = 1;
nodes = (
(349,1244,o),
(401,1302,o),
(401,1368,cs),
(401,1434,o),
(349,1492,o),
(269,1492,cs),
(190,1492,o),
(138,1434,o),
(138,1368,cs),
(138,1302,o),
(190,1244,o),
(269,1244,cs)
);
}
);
userData = {
com.typemytype.robofont.mark = (
0.967,
0.6,
1,
1
);
};
width = 526;
}
);
unicode = 105;
},
{
glyphname = idotless;
lastChange = "2022-10-14 13:55:51 +0000";
layers = (
{
anchors = (
{
name = top;
pos = (263,1062);
}
);
layerId = master01;
shapes = (
{
closed = 1;
nodes = (
(354,0,l),
(354,1062,l),
(172,1062,l),
(172,0,l)
);
}
);
userData = {
com.typemytype.robofont.mark = (
0.967,
0.6,
1,
1
);
};
width = 526;
}
);
unicode = 305;
},
{
glyphname = j;
lastChange = "2022-10-14 13:55:51 +0000";
layers = (
{
anchors = (
{
name = btm;
pos = (242,-170);
},
{
name = top;
pos = (242,1700);
}
);
layerId = master01;
shapes = (
{
closed = 1;
nodes = (
(298,-248,o),
(366,-83,o),
(366,123,cs),
(366,1062,l),
(184,1062,l),
(184,123,ls),
(184,-19,o),
(147,-124,o),
(15,-210,c),
(104,-354,l)
);
},
{
closed = 1;
nodes = (
(357,1244,o),
(410,1302,o),
(410,1368,cs),
(410,1434,o),
(357,1492,o),
(278,1492,cs),
(198,1492,o),
(146,1434,o),
(146,1368,cs),
(146,1302,o),
(198,1244,o),
(278,1244,cs)
);
}
);
userData = {
com.typemytype.robofont.guides = (
{
angle = 90;
isGlobal = 0;
magnetic = 5;
x = -45;
y = 0;
},
{
angle = 90;
isGlobal = 0;
magnetic = 5;
x = 308;
y = 0;
}
);
com.typemytype.robofont.mark = (
0.967,
0.6,
1,
1
);
};
width = 526;
}
);
unicode = 106;
},
{
glyphname = jdotless;
lastChange = "2022-10-14 13:55:51 +0000";
layers = (
{
anchors = (
{
name = top;
pos = (302,1700);
}
);
layerId = master01;
shapes = (
{
closed = 1;
nodes = (
(298,-248,o),
(366,-83,o),
(366,123,cs),
(366,1062,l),
(184,1062,l),
(184,123,ls),
(184,-19,o),
(147,-124,o),
(15,-210,c),
(104,-354,l)
);
}
);
userData = {
com.typemytype.robofont.mark = (
0.967,
0.6,
1,
1
);
};
width = 526;
}
);
unicode = 567;
},
{
glyphname = k;
lastChange = "2022-10-14 13:55:51 +0000";
layers = (
{
anchors = (
{
name = btm;
pos = (518,-170);
},
{
name = top;
pos = (518,1700);
}
);
layerId = master01;
shapes = (
{
closed = 1;
nodes = (
(884,0,l),
(470,603,l),
(282,559,l),
(660,0,l)
);
},
{
closed = 1;
nodes = (
(334,0,l),
(334,1593,l),
(153,1593,l),
(153,0,l)
);
},
{
closed = 1;
nodes = (
(830,1062,l),
(636,1062,l),
(316,539,l),
(440,433,l)
);
}
);
userData = {
com.typemytype.robofont.mark = (
0.967,
0.6,
1,
1
);
};
width = 867;
}
);
unicode = 107;
},
{
glyphname = kgreenlandic;
lastChange = "2022-10-14 13:55:51 +0000";
layers = (
{
layerId = master01;
shapes = (
{
closed = 1;
nodes = (
(814,1063,l),
(624,1063,l),
(310,489,l),
(431,383,l)
);
},
{
closed = 1;
nodes = (
(328,0,l),
(328,1062,l),
(150,1062,l),
(150,0,l)
);
},
{
closed = 1;
nodes = (
(867,0,l),
(461,553,l),
(277,509,l),
(647,0,l)
);
}
);
width = 940;
}
);
unicode = 312;
},
{
glyphname = l;
lastChange = "2022-10-14 13:55:51 +0000";
layers = (
{
anchors = (
{
name = bottom;
pos = (263,0);
},
{
name = btm;
pos = (263,-170);
},
{
name = center;
pos = (263,1010);
},
{
name = top;
pos = (263,1700);
},
{
name = topright;
pos = (446,1062);
}
);
layerId = master01;
shapes = (
{
closed = 1;
nodes = (
(353,0,l),
(353,1593,l),
(172,1593,l),
(172,0,l)
);
}
);
userData = {
com.typemytype.robofont.mark = (
0.967,
0.6,
1,
1
);
};
width = 525;
}
);
unicode = 108;
},
{
glyphname = lslash;
lastChange = "2022-10-14 13:55:51 +0000";
layers = (
{
layerId = master01;
shapes = (
{
closed = 1;
nodes = (
(555,941,l),
(462,1081,l),
(-48,740,l),
(45,600,l)
);
},
{
pos = (-19,0);
ref = l;
}
);
width = 479;
}
);
unicode = 322;
},
{
glyphname = m;
lastChange = "2022-10-14 13:55:51 +0000";
layers = (
{
anchors = (
{
name = bottom;
pos = (774,0);
},
{
name = btm;
pos = (774,-170);
},
{
name = top;
pos = (774,1700);
}
);
layerId = master01;
shapes = (
{
closed = 1;
nodes = (
(1403,0,l),
(1403,688,ls),
(1403,939,o),
(1291,1078,o),
(1075,1078,cs),
(963,1078,o),
(836,997,o),
(789,914,c),
(824,751,l),
(879,858,o),
(974,897,o),
(1054,897,cs),
(1165,897,o),
(1222,822,o),
(1222,686,cs),
(1222,0,l)
);
},
{
closed = 1;
nodes = (
(341,0,l),
(341,954,l),
(276,1081,l),
(160,1081,l),
(160,0,l)
);
},
{
closed = 1;
nodes = (
(872,0,l),
(872,890,l),
(840,888,l),
(793,1012,o),
(693,1078,o),
(543,1078,cs),
(431,1078,o),
(305,997,o),
(258,914,c),
(292,751,l),
(348,858,o),
(442,897,o),
(523,897,cs),
(633,897,o),
(690,822,o),
(690,686,cs),
(690,0,l)
);
}
);
userData = {
com.typemytype.robofont.mark = (
0.967,
0.6,
1,
1
);
};
width = 1548;
}
);
unicode = 109;
},
{
glyphname = n;
lastChange = "2022-10-14 13:55:51 +0000";
layers = (
{
anchors = (
{
name = bottom;
pos = (454,0);
},
{
name = btm;
pos = (454,-170);
},
{
name = top;
pos = (454,1700);
}
);
layerId = master01;
shapes = (
{
closed = 1;
nodes = (
(822,0,l),
(822,688,ls),
(822,939,o),
(710,1078,o),
(494,1078,cs),
(381,1078,o),
(274,1012,o),
(223,917,c),
(244,751,l),
(299,858,o),
(393,897,o),
(473,897,cs),
(583,897,o),
(640,822,o),
(640,686,cs),
(640,0,l)
);
},
{
closed = 1;
nodes = (
(282,0,l),
(282,954,l),
(222,1081,l),
(100,1081,l),
(100,0,l)
);
}
);
userData = {
com.typemytype.robofont.mark = (
0.967,
0.6,
1,
1
);
};
width = 907;
}
);
unicode = 110;
},
{
glyphname = eng;
lastChange = "2022-10-14 13:55:51 +0000";
layers = (
{
layerId = master01;
shapes = (
{
closed = 1;
nodes = (
(806,-248,o),
(873,-83,o),
(873,123,cs),
(875,688,ls),
(875,939,o),
(763,1078,o),
(547,1078,cs),
(461,1078,o),
(367,1032,o),
(306,974,c),
(153,1081,l),
(153,0,l),
(334,0,l),
(334,800,l),
(390,866,o),
(462,897,o),
(526,897,cs),
(636,897,o),
(693,822,o),
(693,686,cs),
(691,123,ls),
(691,-19,o),
(655,-124,o),
(522,-210,c),
(611,-354,l)
);
}
);
width = 1027;
}
);
unicode = 331;
},
{
glyphname = o;
lastChange = "2022-10-14 13:55:51 +0000";
layers = (
{
anchors = (
{
name = bottom;
pos = (462,0);
},
{
name = center;
pos = (462,531);
},
{
name = ogonek;
pos = (597,10);
},
{
name = top;
pos = (461,1081);
},
{
name = topright;
pos = (568,1062);
}
);
layerId = master01;
shapes = (
{
closed = 1;
nodes = (
(686,-19,o),
(853,163,o),
(853,531,cs),
(853,899,o),
(686,1081,o),
(461,1081,cs),
(236,1081,o),
(70,899,o),
(70,531,cs),
(70,163,o),
(236,-19,o),
(461,-19,cs)
);
},
{
closed = 1;
nodes = (
(354,156,o),
(259,243,o),
(259,531,cs),
(259,819,o),
(354,906,o),
(461,906,cs),
(568,906,o),
(663,819,o),
(663,531,cs),
(663,243,o),
(568,156,o),
(461,156,cs)
);
}
);
userData = {
com.typemytype.robofont.guides = (
{
angle = 90;
isGlobal = 0;
magnetic = 5;
x = 484;
y = 0;
}
);
com.typemytype.robofont.mark = (
0.967,
0.6,
1,
1
);
};
width = 923;
}
);
metricRight = "=|";
unicode = 111;
},
{
glyphname = oslash;
lastChange = "2022-10-14 13:55:51 +0000";
layers = (
{
layerId = master01;
shapes = (
{
closed = 1;
nodes = (
(774,1181,l),
(627,1236,l),
(532,963,l),
(668,874,l)
);
},
{
closed = 1;
nodes = (
(393,84,l),
(259,175,l),
(156,-121,l),
(303,-176,l)
);
},
{
ref = o;
}
);
width = 950;
}
);
unicode = 248;
},
{
glyphname = oe;
lastChange = "2022-10-14 13:55:51 +0000";
layers = (
{
layerId = master01;
shapes = (
{
closed = 1;
nodes = (
(687,-19,o),
(871,163,o),
(871,531,cs),
(871,899,o),
(687,1081,o),
(484,1081,cs),
(281,1081,o),
(93,899,o),
(93,531,cs),
(93,163,o),
(281,-19,o),
(484,-19,cs)
);
},
{
closed = 1;
nodes = (
(387,156,o),
(282,253,o),
(282,531,cs),
(282,809,o),
(387,906,o),
(484,906,cs),
(581,906,o),
(686,809,o),
(686,531,cs),
(686,253,o),
(581,156,o),
(484,156,c)
);
},
{
closed = 1;
nodes = (
(1177,-19,o),
(1285,13,o),
(1347,53,c),
(1278,205,l),
(1248,181,o),
(1172,150,o),
(1121,150,cs),
(1001,150,o),
(870,244,o),
(870,533,c),
(870,781,o),
(959,906,o),
(1060,906,cs),
(1148,906,o),
(1208,850,o),
(1195,623,c),
(840,623,l),
(840,456,l),
(1363,455,l),
(1431,833,o),
(1307,1079,o),
(1072,1079,cs),
(870,1079,o),
(688,905,o),
(688,527,cs),
(688,187,o),
(860,-19,o),
(1099,-19,cs)
);
}
);
width = 1479;
}
);
unicode = 339;
},
{
glyphname = p;
lastChange = "2022-10-14 13:55:51 +0000";
layers = (
{
anchors = (
{
name = btm;
pos = (511,-170);
},
{
name = top;
pos = (511,1700);
}
);
layerId = master01;
shapes = (
{
closed = 1;
nodes = (
(710,-19,o),
(889,156,o),
(889,541,cs),
(889,926,o),
(710,1081,o),
(500,1081,cs),
(363,1081,o),
(250,992,o),
(206,843,c),
(310,807,l),
(348,874,o),
(413,913,o),
(488,913,cs),
(599,913,o),
(704,839,o),
(704,541,cs),
(704,243,o),
(599,149,o),
(488,149,cs),
(413,149,o),
(348,188,o),
(310,255,c),
(206,219,l),
(250,70,o),
(363,-19,o),
(500,-19,cs)
);
},
{
closed = 1;
nodes = (
(334,-354,l),
(334,925,l),
(273,1082,l),
(153,1082,l),
(153,-354,l)
);
}
);
userData = {
com.typemytype.robofont.mark = (
0.967,
0.6,
1,
1
);
};
width = 975;
}
);
unicode = 112;
},
{
glyphname = thorn;
lastChange = "2022-10-14 13:55:51 +0000";
layers = (
{
layerId = master01;
shapes = (
{
closed = 1;
nodes = (
(348,-354,l),
(348,1593,l),
(167,1593,l),
(167,-354,l)
);
},
{
pos = (14,0);
ref = p;
}
);
width = 989;
}
);
unicode = 254;
},
{
glyphname = q;
lastChange = "2022-10-14 13:55:51 +0000";
layers = (
{
anchors = (
{
name = btm;
pos = (461,-170);
},
{
name = top;
pos = (461,1700);
}
);
layerId = master01;
shapes = (
{
closed = 1;
nodes = (
(633,-19,o),
(746,70,o),
(790,219,c),
(686,255,l),
(648,188,o),
(583,149,o),
(508,149,cs),
(397,149,o),
(292,223,o),
(292,521,cs),
(292,819,o),
(397,913,o),
(508,913,cs),
(583,913,o),
(648,874,o),
(686,807,c),
(790,843,l),
(746,992,o),
(633,1081,o),
(496,1081,cs),
(285,1081,o),
(107,906,o),
(107,521,cs),
(107,136,o),
(285,-19,o),
(496,-19,cs)
);
},
{
closed = 1;
nodes = (
(816,-354,l),
(816,1082,l),
(703,1081,l),
(634,985,l),
(634,-354,l)
);
}
);
userData = {
com.typemytype.robofont.mark = (
0.967,
0.6,
1,
1
);
};
width = 969;
}
);
unicode = 113;
},
{
glyphname = r;
lastChange = "2022-10-14 13:55:51 +0000";
layers = (
{
anchors = (
{
name = btm;
pos = (250,-170);
},
{
name = top;
pos = (384,1062);
}
);
layerId = master01;
shapes = (
{
closed = 1;
nodes = (
(340,0,l),
(340,874,l),
(270,1081,l),
(153,1081,l),
(153,0,l)
);
},
{
closed = 1;
nodes = (
(320,826,o),
(427,883,o),
(593,883,c),
(593,1079,l),
(470,1079,o),
(353,1022,o),
(261,937,c),
(261,739,l)
);
}
);
userData = {
com.typemytype.robofont.mark = (
0.967,
0.6,
1,
1
);
};
width = 654;
}
);
unicode = 114;
},
{
glyphname = s;
lastChange = "2022-10-14 13:55:51 +0000";
layers = (
{
anchors = (
{
name = bottom;
pos = (390,0);
},
{
name = btm;
pos = (410,-170);
},
{
name = top;
pos = (392,1700);
}
);
layerId = master01;
shapes = (
{
closed = 1;
nodes = (
(551,-18,o),
(691,107,o),
(691,272,cs),
(691,393,o),
(638,485,o),
(496,599,cs),
(417,663,ls),
(342,723,o),
(316,763,o),
(316,808,cs),
(316,863,o),
(361,912,o),
(436,912,cs),
(489,912,o),
(542,897,o),
(592,861,c),
(668,1027,l),
(591,1065,o),
(519,1081,o),
(440,1081,cs),
(259,1081,o),
(132,951,o),
(132,802,cs),
(132,690,o),
(187,591,o),
(303,504,cs),
(372,450,ls),
(441,396,o),
(505,345,o),
(505,271,cs),
(505,200,o),
(449,153,o),
(367,153,cs),
(304,153,o),
(236,176,o),
(183,210,c),
(113,53,l),
(181,12,o),
(261,-18,o),
(363,-18,cs)
);
}
);
userData = {
com.typemytype.robofont.mark = (
0.967,
0.6,
1,
1
);
};
width = 779;
}
);
unicode = 115;
},
{
glyphname = germandbls;
lastChange = "2022-10-14 13:55:51 +0000";
layers = (
{
layerId = master01;
shapes = (
{
closed = 1;
nodes = (
(867,-18,o),
(1007,107,o),
(1007,296,cs),
(1007,584,o),
(684,669,o),
(684,849,cs),
(684,988,o),
(877,1101,o),
(877,1313,cs),
(877,1482,o),
(738,1612,o),
(551,1612,cs),
(328,1612,o),
(153,1448,o),
(153,1139,cs),
(153,0,l),
(338,0,l),
(338,1155,ls),
(338,1359,o),
(437,1455,o),
(556,1446,cs),
(635,1440,o),
(698,1386,o),
(698,1307,cs),
(698,1163,o),
(488,1014,o),
(488,818,cs),
(488,575,o),
(813,485,o),
(813,287,cs),
(813,196,o),
(744,156,o),
(676,156,cs),
(630,156,o),
(578,176,o),
(517,209,c),
(440,43,l),
(502,8,o),
(577,-18,o),
(667,-18,cs)
);
},
{
closed = 1;
nodes = (
(288,894,l),
(288,1062,l),
(64,1062,l),
(64,894,l)
);
}
);
userData = {
com.typemytype.robofont.guides = (
{
angle = 0;
isGlobal = 0;
magnetic = 5;
x = 0;
y = 1297;
}
);
com.typemytype.robofont.mark = (
0.967,
0.6,
1,
1
);
};
width = 1063;
}
);
unicode = 223;
},
{
glyphname = t;
lastChange = "2022-10-14 13:55:51 +0000";
layers = (
{
anchors = (
{
name = bottom;
pos = (313,0);
},
{
name = btm;
pos = (396,-170);
},
{
name = center;
pos = (313,531);
},
{
name = top;
pos = (268,1320);
},
{
name = topright;
pos = (605,1062);
}
);
layerId = master01;
shapes = (
{
closed = 1;
nodes = (
(550,160,l),
(381,153,o),
(362,220,o),
(362,320,cs),
(362,1416,l),
(181,1416,l),
(181,322,ls),
(181,99,o),
(264,-20,o),
(550,-18,c)
);
},
{
closed = 1;
nodes = (
(535,894,l),
(535,1062,l),
(100,1062,l),
(100,894,l)
);
}
);
userData = {
com.typemytype.robofont.guides = (
{
angle = 90;
isGlobal = 0;
magnetic = 5;
x = 535;
y = 0;
}
);
com.typemytype.robofont.mark = (
0.967,
0.6,
1,
1
);
};
width = 625;
}
);
unicode = 116;
},
{
glyphname = tbar;
lastChange = "2022-10-14 13:55:51 +0000";
layers = (
{
layerId = master01;
shapes = (
{
closed = 1;
nodes = (
(525,513,l),
(525,681,l),
(98,681,l),
(98,513,l)
);
},
{
ref = t;
}
);
width = 633;
}
);
unicode = 359;
},
{
glyphname = u;
lastChange = "2022-10-14 13:55:51 +0000";
layers = (
{
anchors = (
{
name = bottom;
pos = (506,0);
},
{
name = btm;
pos = (505,-170);
},
{
name = ogonek;
pos = (910,10);
},
{
name = top;
pos = (522,1062);
},
{
name = topright;
pos = (726,1062);
}
);
layerId = master01;
shapes = (
{
closed = 1;
nodes = (
(591,-18,o),
(701,61,o),
(754,146,c),
(710,305,l),
(676,220,o),
(601,161,o),
(501,161,cs),
(391,161,o),
(334,207,o),
(334,347,cs),
(334,1062,l),
(153,1062,l),
(153,327,ls),
(153,102,o),
(289,-18,o),
(458,-18,cs)
);
},
{
closed = 1;
nodes = (
(858,-20,l),
(858,1062,l),
(676,1062,l),
(676,127,l),
(745,-20,l)
);
}
);
userData = {
com.typemytype.robofont.guides = (
{
angle = 90;
isGlobal = 0;
magnetic = 5;
x = 485;
y = 0;
}
);
com.typemytype.robofont.mark = (
0.967,
0.6,
1,
1
);
};
width = 1011;
}
);
unicode = 117;
},
{
glyphname = uogonek;
lastChange = "2022-10-14 13:55:51 +0000";
layers = (
{
layerId = master01;
shapes = (
{
closed = 1;
nodes = (
(616,-19,o),
(734,131,o),
(788,190,c),
(710,315,l),
(676,230,o),
(615,161,o),
(501,161,cs),
(391,161,o),
(334,230,o),
(334,370,cs),
(334,1062,l),
(153,1062,l),
(153,327,ls),
(153,102,o),
(289,-19,o),
(458,-19,cs)
);
},
{
closed = 1;
nodes = (
(857,-365,l),
(732,-376,o),
(671,-316,o),
(661,-255,cs),
(640,-132,o),
(776,-44,o),
(858,-19,c),
(805,67,l),
(773,54,l),
(525,-44,o),
(437,-170,o),
(463,-308,cs),
(492,-464,o),
(648,-534,o),
(856,-506,c)
);
},
{
closed = 1;
nodes = (
(858,1062,l),
(676,1062,l),
(676,107,l),
(858,-19,l)
);
}
);
width = 1011;
}
);
unicode = 371;
},
{
glyphname = v;
lastChange = "2022-10-14 13:55:51 +0000";
layers = (
{
anchors = (
{
name = btm;
pos = (409,-170);
},
{
name = top;
pos = (409,1700);
}
);
layerId = master01;
shapes = (
{
closed = 1;
nodes = (
(800,1062,l),
(609,1062,l),
(459,601,l),
(413,411,l),
(366,601,l),
(213,1062,l),
(20,1062,l),
(412,-79,l)
);
}
);
userData = {
com.typemytype.robofont.guides = (
{
angle = 0;
isGlobal = 0;
magnetic = 5;
x = 0;
y = 463;
},
{
angle = 0;
isGlobal = 0;
magnetic = 5;
x = 0;
y = 600;
},
{
angle = 90;
isGlobal = 0;
magnetic = 5;
x = 412;
y = 0;
}
);
com.typemytype.robofont.mark = (
0.967,
0.6,
1,
1
);
};
width = 820;
}
);
unicode = 118;
},
{
glyphname = w;
lastChange = "2022-10-14 13:55:51 +0000";
layers = (
{
anchors = (
{
name = btm;
pos = (548,-170);
},
{
name = top;
pos = (548,1700);
}
);
layerId = master01;
shapes = (
{
closed = 1;
nodes = (
(509,277,l),
(601,503,l),
(702,276,l),
(858,-61,l),
(1176,1062,l),
(983,1062,l),
(860,598,l),
(822,392,l),
(741,600,l),
(598,882,l),
(471,600,l),
(382,392,l),
(339,600,l),
(213,1062,l),
(20,1062,l),
(338,-61,l)
);
}
);
userData = {
com.typemytype.robofont.guides = (
{
angle = 0;
isGlobal = 0;
magnetic = 5;
x = 0;
y = 600;
},
{
angle = 0;
isGlobal = 0;
magnetic = 5;
x = 0;
y = 276;
},
{
angle = 90;
isGlobal = 0;
magnetic = 5;
x = 548;
y = 0;
},
{
angle = 90;
isGlobal = 0;
magnetic = 5;
x = 353;
y = 0;
}
);
com.typemytype.robofont.mark = (
0.967,
0.6,
1,
1
);
};
width = 1196;
}
);
unicode = 119;
},
{
glyphname = x;
lastChange = "2022-10-14 13:55:51 +0000";
layers = (
{
anchors = (
{
name = btm;
pos = (416,-170);
},
{
name = top;
pos = (416,1700);
}
);
layerId = master01;
shapes = (
{
closed = 1;
nodes = (
(792,0,l),
(255,1062,l),
(61,1062,l),
(599,0,l)
);
},
{
closed = 1;
nodes = (
(234,0,l),
(477,466,l),
(498,487,l),
(772,1062,l),
(578,1062,l),
(396,648,l),
(373,630,l),
(41,0,l)
);
}
);
userData = {
com.typemytype.robofont.mark = (
0.967,
0.6,
1,
1
);
};
width = 833;
}
);
unicode = 120;
},
{
glyphname = y;
lastChange = "2022-10-14 13:55:51 +0000";
layers = (
{
anchors = (
{
name = btm;
pos = (431,-170);
},
{
name = top;
pos = (431,1700);
}
);
layerId = master01;
shapes = (
{
closed = 1;
nodes = (
(431,-244,o),
(480,-164,o),
(557,110,cs),
(822,1062,l),
(628,1062,l),
(487,521,l),
(439,247,l),
(387,522,l),
(234,1062,l),
(41,1062,l),
(357,45,l),
(346,-61,o),
(294,-129,o),
(189,-210,c),
(277,-354,l)
);
}
);
userData = {
com.typemytype.robofont.mark = (
0.967,
0.6,
1,
1
);
};
width = 842;
}
);
unicode = 121;
},
{
glyphname = z;
lastChange = "2022-10-14 13:55:51 +0000";
layers = (
{
anchors = (
{
name = bottom;
pos = (442,0);
},
{
name = btm;
pos = (447,-170);
},
{
name = center;
pos = (442,531);
},
{
name = top;
pos = (447,1700);
}
);
layerId = master01;
shapes = (
{
closed = 1;
nodes = (
(766,0,l),
(766,168,l),
(370,168,l),
(798,1062,l),
(171,1062,l),
(171,894,l),
(523,894,l),
(97,0,l)
);
}
);
userData = {
com.typemytype.robofont.guides = (
{
angle = 90;
isGlobal = 0;
magnetic = 5;
x = 798;
y = 0;
}
);
com.typemytype.robofont.mark = (
0.967,
0.6,
1,
1
);
};
width = 883;
}
);
unicode = 122;
},
{
glyphname = ordfeminine;
lastChange = "2022-10-14 13:55:51 +0000";
layers = (
{
layerId = master01;
shapes = (
{
closed = 1;
nodes = (
(564,1373,ls),
(564,1523,o),
(472,1612,o),
(333,1612,cs),
(280,1612,o),
(216,1599,o),
(159,1571,c),
(214,1446,l),
(251,1467,o),
(291,1481,o),
(326,1481,cs),
(393,1481,o),
(428,1431,o),
(428,1349,cs),
(428,953,l),
(564,885,l)
);
},
{
closed = 1;
nodes = (
(446,885,o),
(527,978,o),
(527,1094,c),
(444,1081,l),
(441,1051,o),
(400,1021,o),
(353,1021,cs),
(296,1021,o),
(260,1066,o),
(260,1121,cs),
(260,1191,o),
(321,1231,o),
(428,1229,c),
(525,1229,l),
(525,1354,l),
(428,1355,l),
(221,1345,o),
(117,1256,o),
(117,1118,cs),
(117,988,o),
(210,885,o),
(331,885,cs)
);
}
);
width = 651;
}
);
unicode = 170;
},
{
glyphname = ordmasculine;
lastChange = "2022-10-14 13:55:51 +0000";
layers = (
{
layerId = master01;
shapes = (
{
closed = 1;
nodes = (
(464,884,o),
(582,1006,o),
(582,1249,cs),
(582,1492,o),
(464,1612,o),
(334,1612,cs),
(203,1612,o),
(86,1492,o),
(86,1249,cs),
(86,1006,o),
(203,884,o),
(334,884,cs)
);
},
{
closed = 1;
nodes = (
(283,1022,o),
(227,1081,o),
(227,1249,cs),
(227,1416,o),
(283,1474,o),
(334,1474,cs),
(386,1474,o),
(442,1416,o),
(442,1249,cs),
(442,1081,o),
(386,1022,o),
(334,1022,cs)
);
}
);
width = 666;
}
);
unicode = 186;
},
{
glyphname = Delta;
lastChange = "2022-10-14 13:55:51 +0000";
layers = (
{
layerId = master01;
shapes = (
{
closed = 1;
nodes = (
(1072,0,l),
(605,1530,l),
(139,0,l)
);
},
{
closed = 1;
nodes = (
(605,927,l),
(840,162,l),
(379,162,l)
);
}
);
userData = {
com.typemytype.robofont.guides = (
{
angle = 0;
isGlobal = 0;
magnetic = 5;
x = 0;
y = 92;
}
);
};
width = 1212;
}
);
unicode = 916;
},
{
glyphname = Omega;
lastChange = "2022-10-14 13:55:51 +0000";
layers = (
{
layerId = master01;
shapes = (
{
closed = 1;
nodes = (
(619,100,l),
(540,265,o),
(421,486,o),
(421,883,cs),
(421,1368,o),
(583,1447,o),
(698,1447,cs),
(812,1447,o),
(974,1368,o),
(974,883,cs),
(974,486,o),
(850,266,o),
(771,100,c),
(771,0,l),
(841,2,o),
(887,40,o),
(956,151,cs),
(1071,338,o),
(1191,615,o),
(1191,883,cs),
(1191,1544,o),
(861,1611,o),
(698,1611,cs),
(534,1611,o),
(204,1544,o),
(204,883,cs),
(204,615,o),
(321,335,o),
(437,149,cs),
(505,38,o),
(549,1,o),
(619,0,c)
);
},
{
closed = 1;
nodes = (
(619,0,l),
(581,67,l),
(551,169,l),
(171,170,l),
(171,0,l)
);
},
{
closed = 1;
nodes = (
(1220,0,l),
(1220,170,l),
(836,169,l),
(810,67,l),
(771,0,l)
);
}
);
width = 1392;
}
);
unicode = 937;
},
{
glyphname = mu;
lastChange = "2022-10-14 13:55:51 +0000";
layers = (
{
layerId = master01;
shapes = (
{
closed = 1;
nodes = (
(334,-425,l),
(334,48,l),
(385,7,o),
(444,-18,o),
(502,-18,cs),
(567,-18,o),
(643,23,o),
(700,79,c),
(746,-20,l),
(859,-20,l),
(859,1062,l),
(677,1062,l),
(677,245,l),
(637,194,o),
(576,161,o),
(502,161,cs),
(392,161,o),
(335,207,o),
(335,260,cs),
(335,1062,l),
(153,1062,l),
(153,-425,l)
);
}
);
width = 1012;
}
);
metricLeft = u;
metricRight = u;
unicode = 956;
},
{
glyphname = pi;
lastChange = "2022-10-14 13:55:51 +0000";
layers = (
{
layerId = master01;
shapes = (
{
closed = 1;
nodes = (
(916,-6,o),
(974,-3,o),
(996,0,c),
(996,160,l),
(981,155,o),
(924,152,o),
(912,152,cs),
(826,152,o),
(822,215,o),
(822,864,c),
(1000,864,l),
(1000,1032,l),
(79,1032,l),
(79,864,l),
(244,864,l),
(152,1,l),
(343,1,l),
(424,864,l),
(634,864,l),
(634,316,ls),
(634,125,o),
(675,-6,o),
(898,-6,cs)
);
}
);
userData = {
com.typemytype.robofont.guides = (
{
angle = 90;
isGlobal = 0;
magnetic = 5;
x = 1009;
y = 0;
}
);
};
width = 1114;
}
);
unicode = 960;
},
{
glyphname = zero;
lastChange = "2022-10-14 13:55:51 +0000";
layers = (
{
layerId = master01;
shapes = (
{
closed = 1;
nodes = (
(792,-19,o),
(988,174,o),
(988,796,cs),
(988,1418,o),
(792,1611,o),
(563,1611,cs),
(335,1611,o),
(138,1418,o),
(138,796,cs),
(138,174,o),
(335,-19,o),
(563,-19,cs)
);
},
{
closed = 1;
nodes = (
(449,156,o),
(335,276,o),
(335,796,cs),
(335,1316,o),
(449,1436,o),
(563,1436,cs),
(677,1436,o),
(792,1316,o),
(792,796,cs),
(792,276,o),
(677,156,o),
(563,156,cs)
);
}
);
width = 1126;
}
);
unicode = 48;
},
{
glyphname = one;
lastChange = "2022-10-14 13:55:51 +0000";
layers = (
{
layerId = master01;
shapes = (
{
closed = 1;
nodes = (
(403,0,l),
(403,1631,l),
(213,1430,l),
(213,0,l)
);
}
);
width = 616;
}
);
unicode = 49;
},
{
glyphname = two;
lastChange = "2022-10-14 13:55:51 +0000";
layers = (
{
layerId = master01;
shapes = (
{
closed = 1;
nodes = (
(268,1,l),
(605,684,ls),
(733,945,o),
(794,1072,o),
(794,1221,cs),
(794,1449,o),
(652,1613,o),
(407,1613,cs),
(299,1613,o),
(182,1581,o),
(91,1503,c),
(182,1357,l),
(261,1416,o),
(342,1438,o),
(403,1438,cs),
(537,1438,o),
(597,1333,o),
(597,1231,cs),
(597,1143,o),
(553,1010,o),
(465,830,cs),
(60,1,l)
);
},
{
closed = 1;
nodes = (
(812,1,l),
(812,176,l),
(188,176,l),
(184,1,l)
);
}
);
userData = {
com.typemytype.robofont.guides = (
{
angle = 90;
isGlobal = 0;
magnetic = 5;
x = 733;
y = 0;
}
);
};
width = 940;
}
);
unicode = 50;
},
{
glyphname = three;
lastChange = "2022-10-14 13:55:51 +0000";
layers = (
{
layerId = master01;
shapes = (
{
closed = 1;
nodes = (
(678,-19,o),
(870,184,o),
(870,469,cs),
(870,728,o),
(712,918,o),
(386,966,c),
(302,868,l),
(236,741,l),
(292,766,o),
(334,774,o),
(377,774,cs),
(542,774,o),
(673,663,o),
(673,464,cs),
(673,277,o),
(558,156,o),
(389,156,cs),
(323,156,o),
(245,174,o),
(177,214,c),
(88,61,l),
(152,19,o),
(271,-19,o),
(394,-19,cs)
);
},
{
closed = 1;
nodes = (
(414,840,l),
(492,849,l),
(840,1594,l),
(644,1594,l),
(257,779,l)
);
},
{
closed = 1;
nodes = (
(577,1418,l),
(684,1594,l),
(161,1594,l),
(162,1418,l)
);
}
);
width = 1007;
}
);
unicode = 51;
},
{
glyphname = four;
lastChange = "2022-10-14 13:55:51 +0000";
layers = (
{
layerId = master01;
shapes = (
{
closed = 1;
nodes = (
(955,336,l),
(955,512,l),
(334,512,l),
(614,1593,l),
(422,1593,l),
(102,336,l)
);
},
{
closed = 1;
nodes = (
(806,0,l),
(806,1081,l),
(616,880,l),
(616,0,l)
);
}
);
width = 1072;
}
);
unicode = 52;
},
{
glyphname = five;
lastChange = "2022-10-14 13:55:51 +0000";
layers = (
{
layerId = master01;
shapes = (
{
closed = 1;
nodes = (
(649,-19,o),
(870,152,o),
(870,481,cs),
(870,772,o),
(697,971,o),
(416,971,cs),
(322,971,o),
(283,949,o),
(226,876,c),
(183,720,l),
(264,779,o),
(346,796,o),
(406,796,cs),
(565,796,o),
(673,679,o),
(673,486,cs),
(673,265,o),
(530,156,o),
(380,156,cs),
(314,156,o),
(241,177,o),
(173,221,c),
(88,61,l),
(204,0,o),
(316,-19,o),
(400,-19,cs)
);
},
{
closed = 1;
nodes = (
(372,884,l),
(372,1593,l),
(183,1593,l),
(183,726,l)
);
},
{
closed = 1;
nodes = (
(783,1417,l),
(780,1593,l),
(202,1593,l),
(226,1417,l)
);
}
);
width = 971;
}
);
unicode = 53;
},
{
glyphname = six;
lastChange = "2022-10-14 13:55:51 +0000";
layers = (
{
layerId = master01;
shapes = (
{
closed = 1;
nodes = (
(783,-18,o),
(976,148,o),
(976,483,cs),
(976,819,o),
(782,985,o),
(579,985,cs),
(493,985,o),
(427,955,o),
(357,872,c),
(377,1065,o),
(522,1321,o),
(744,1479,c),
(650,1632,l),
(314,1397,o),
(138,1022,o),
(138,602,cs),
(138,184,o),
(312,-18,o),
(559,-18,cs)
);
},
{
closed = 1;
nodes = (
(455,159,o),
(352,245,o),
(352,484,cs),
(352,724,o),
(455,810,o),
(563,810,cs),
(669,810,o),
(779,727,o),
(779,484,cs),
(779,242,o),
(669,159,o),
(563,159,cs)
);
}
);
userData = {
com.typemytype.robofont.guides = (
{
angle = 90;
isGlobal = 0;
magnetic = 5;
x = 498;
y = 0;
}
);
};
width = 1078;
}
);
unicode = 54;
},
{
glyphname = seven;
lastChange = "2022-10-14 13:55:51 +0000";
layers = (
{
layerId = master01;
shapes = (
{
closed = 1;
nodes = (
(361,0,l),
(829,1593,l),
(88,1593,l),
(89,1418,l),
(585,1418,l),
(173,0,l)
);
}
);
width = 895;
}
);
unicode = 55;
},
{
glyphname = eight;
lastChange = "2022-10-14 13:55:51 +0000";
layers = (
{
layerId = master01;
shapes = (
{
closed = 1;
nodes = (
(802,-19,o),
(984,172,o),
(984,455,cs),
(984,751,o),
(784,955,o),
(561,955,cs),
(338,955,o),
(138,751,o),
(138,455,cs),
(138,172,o),
(320,-19,o),
(561,-19,cs)
);
},
{
closed = 1;
nodes = (
(432,156,o),
(335,262,o),
(335,469,cs),
(335,676,o),
(432,779,o),
(561,779,cs),
(691,779,o),
(787,676,o),
(787,469,cs),
(787,262,o),
(691,156,o),
(561,156,cs)
);
},
{
closed = 1;
nodes = (
(761,782,o),
(926,980,o),
(926,1224,cs),
(926,1475,o),
(752,1630,o),
(561,1630,cs),
(369,1630,o),
(195,1474,o),
(195,1223,cs),
(195,978,o),
(362,782,o),
(561,782,cs)
);
},
{
closed = 1;
nodes = (
(480,956,o),
(392,1025,o),
(392,1205,cs),
(392,1385,o),
(480,1455,o),
(561,1455,cs),
(642,1455,o),
(729,1385,o),
(729,1205,cs),
(729,1025,o),
(642,956,o),
(561,956,cs)
);
}
);
userData = {
com.typemytype.robofont.guides = (
{
angle = 90;
isGlobal = 0;
magnetic = 5;
x = 514;
y = 0;
}
);
};
width = 1122;
}
);
unicode = 56;
},
{
glyphname = nine;
lastChange = "2022-10-14 13:55:51 +0000";
layers = (
{
layerId = master01;
shapes = (
{
closed = 1;
nodes = (
(781,211,o),
(950,589,o),
(950,1003,cs),
(950,1427,o),
(773,1631,o),
(525,1631,cs),
(301,1631,o),
(106,1463,o),
(106,1124,cs),
(106,784,o),
(303,615,o),
(506,615,cs),
(593,615,o),
(658,646,o),
(729,730,c),
(709,535,o),
(562,276,o),
(338,115,c),
(433,-39,l)
);
},
{
closed = 1;
nodes = (
(415,790,o),
(302,876,o),
(302,1123,cs),
(302,1370,o),
(415,1456,o),
(519,1456,cs),
(622,1456,o),
(735,1370,o),
(735,1123,cs),
(735,876,o),
(622,790,o),
(519,790,cs)
);
}
);
userData = {
com.typemytype.robofont.guides = (
{
angle = 0;
isGlobal = 0;
magnetic = 5;
x = 0;
y = -38;
}
);
};
width = 1088;
}
);
unicode = 57;
},
{
glyphname = one.tf;
lastChange = "2022-10-14 13:55:51 +0000";
layers = (
{
layerId = master01;
shapes = (
{
closed = 1;
nodes = (
(722,0,l),
(718,1593,l),
(532,1450,l),
(532,0,l)
);
},
{
closed = 1;
nodes = (
(995,0,l),
(995,181,l),
(247,181,l),
(247,0,l)
);
},
{
closed = 1;
nodes = (
(718,1412,l),
(718,1593,l),
(219,1593,l),
(219,1412,l)
);
}
);
width = 1126;
}
);
},
{
glyphname = two.tf;
lastChange = "2022-10-14 13:55:51 +0000";
layers = (
{
layerId = master01;
shapes = (
{
closed = 1;
nodes = (
(378,1,l),
(715,684,ls),
(843,945,o),
(904,1072,o),
(904,1221,cs),
(904,1449,o),
(762,1613,o),
(517,1613,cs),
(409,1613,o),
(292,1581,o),
(201,1503,c),
(292,1357,l),
(371,1416,o),
(452,1438,o),
(513,1438,cs),
(647,1438,o),
(707,1333,o),
(707,1231,cs),
(707,1143,o),
(663,1010,o),
(575,830,cs),
(170,1,l)
);
},
{
closed = 1;
nodes = (
(922,1,l),
(922,176,l),
(298,176,l),
(294,1,l)
);
}
);
width = 1126;
}
);
},
{
glyphname = three.tf;
lastChange = "2022-10-14 13:55:51 +0000";
layers = (
{
layerId = master01;
shapes = (
{
closed = 1;
nodes = (
(778,-19,o),
(970,184,o),
(970,469,cs),
(970,728,o),
(812,918,o),
(486,966,c),
(402,868,l),
(336,741,l),
(392,766,o),
(434,774,o),
(477,774,cs),
(642,774,o),
(773,663,o),
(773,464,cs),
(773,277,o),
(658,156,o),
(489,156,cs),
(423,156,o),
(345,174,o),
(277,214,c),
(188,61,l),
(252,19,o),
(371,-19,o),
(494,-19,cs)
);
},
{
closed = 1;
nodes = (
(514,840,l),
(592,849,l),
(940,1594,l),
(744,1594,l),
(357,779,l)
);
},
{
closed = 1;
nodes = (
(677,1418,l),
(784,1594,l),
(261,1594,l),
(262,1418,l)
);
}
);
width = 1126;
}
);
},
{
glyphname = four.tf;
lastChange = "2022-10-14 13:55:51 +0000";
layers = (
{
layerId = master01;
shapes = (
{
closed = 1;
nodes = (
(974,336,l),
(974,512,l),
(353,512,l),
(633,1593,l),
(441,1593,l),
(121,336,l)
);
},
{
closed = 1;
nodes = (
(825,0,l),
(825,1081,l),
(635,880,l),
(635,0,l)
);
}
);
width = 1126;
}
);
},
{
glyphname = five.tf;
lastChange = "2022-10-14 13:55:51 +0000";
layers = (
{
layerId = master01;
shapes = (
{
closed = 1;
nodes = (
(719,-19,o),
(940,152,o),
(940,481,cs),
(940,772,o),
(767,971,o),
(486,971,cs),
(392,971,o),
(353,949,o),
(296,876,c),
(253,720,l),
(334,779,o),
(416,796,o),
(476,796,cs),
(635,796,o),
(743,679,o),
(743,486,cs),
(743,265,o),
(600,156,o),
(450,156,cs),
(384,156,o),
(311,177,o),
(243,221,c),
(158,61,l),
(274,0,o),
(386,-19,o),
(470,-19,cs)
);
},
{
closed = 1;
nodes = (
(442,884,l),
(452,1593,l),
(263,1593,l),
(253,726,l)
);
},
{
closed = 1;
nodes = (
(883,1417,l),
(880,1593,l),
(282,1593,l),
(306,1417,l)
);
}
);
width = 1126;
}
);
},
{
glyphname = six.tf;
lastChange = "2022-10-14 13:55:51 +0000";
layers = (
{
layerId = master01;
shapes = (
{
closed = 1;
nodes = (
(800,-18,o),
(993,148,o),
(993,483,cs),
(993,819,o),
(799,985,o),
(596,985,cs),
(510,985,o),
(444,955,o),
(374,872,c),
(394,1065,o),
(539,1321,o),
(761,1479,c),
(667,1632,l),
(331,1397,o),
(155,1022,o),
(155,602,cs),
(155,184,o),
(329,-18,o),
(576,-18,cs)
);
},
{
closed = 1;
nodes = (
(472,159,o),
(369,245,o),
(369,484,cs),
(369,724,o),
(472,810,o),
(580,810,cs),
(686,810,o),
(796,727,o),
(796,484,cs),
(796,242,o),
(686,159,o),
(580,159,cs)
);
}
);
width = 1126;
}
);
},
{
glyphname = seven.tf;
lastChange = "2022-10-14 13:55:51 +0000";
layers = (
{
layerId = master01;
shapes = (
{
closed = 1;
nodes = (
(431,0,l),
(1020,1593,l),
(128,1593,l),
(129,1418,l),
(776,1418,l),
(243,0,l)
);
}
);
width = 1126;
}
);
},
{
glyphname = eight.tf;
lastChange = "2022-10-14 13:55:51 +0000";
layers = (
{
layerId = master01;
shapes = (
{
closed = 1;
nodes = (
(804,-19,o),
(986,172,o),
(986,455,cs),
(986,751,o),
(786,955,o),
(563,955,cs),
(340,955,o),
(140,751,o),
(140,455,cs),
(140,172,o),
(322,-19,o),
(563,-19,cs)
);
},
{
closed = 1;
nodes = (
(434,156,o),
(337,262,o),
(337,469,cs),
(337,676,o),
(434,779,o),
(563,779,cs),
(693,779,o),
(789,676,o),
(789,469,cs),
(789,262,o),
(693,156,o),
(563,156,cs)
);
},
{
closed = 1;
nodes = (
(763,782,o),
(928,980,o),
(928,1224,cs),
(928,1475,o),
(754,1630,o),
(563,1630,cs),
(371,1630,o),
(197,1474,o),
(197,1223,cs),
(197,978,o),
(364,782,o),
(563,782,cs)
);
},
{
closed = 1;
nodes = (
(482,956,o),
(394,1025,o),
(394,1205,cs),
(394,1385,o),
(482,1455,o),
(563,1455,cs),
(644,1455,o),
(731,1385,o),
(731,1205,cs),
(731,1025,o),
(644,956,o),
(563,956,cs)
);
}
);
width = 1126;
}
);
},
{
glyphname = nine.tf;
lastChange = "2022-10-14 13:55:51 +0000";
layers = (
{
layerId = master01;
shapes = (
{
closed = 1;
nodes = (
(809,211,o),
(978,589,o),
(978,1003,cs),
(978,1427,o),
(801,1631,o),
(553,1631,cs),
(329,1631,o),
(134,1463,o),
(134,1124,cs),
(134,784,o),
(331,615,o),
(534,615,cs),
(621,615,o),
(686,646,o),
(757,730,c),
(737,535,o),
(590,276,o),
(366,115,c),
(461,-39,l)
);
},
{
closed = 1;
nodes = (
(443,790,o),
(330,876,o),
(330,1123,cs),
(330,1370,o),
(443,1456,o),
(547,1456,cs),
(650,1456,o),
(763,1370,o),
(763,1123,cs),
(763,876,o),
(650,790,o),
(547,790,cs)
);
}
);
width = 1126;
}
);
},
{
glyphname = one.dnom;
lastChange = "2022-10-14 13:57:53 +0000";
layers = (
{
layerId = master01;
shapes = (
{
closed = 1;
nodes = (
(273,0,l),
(273,1103,l),
(125,938,l),
(125,0,l)
);
}
);
width = 398;
}
);
},
{
glyphname = two.dnom;
lastChange = "2022-10-14 14:06:24 +0000";
layers = (
{
layerId = master01;
shapes = (
{
closed = 1;
nodes = (
(288,0,l),
(546,535,ls),
(615,679,o),
(644,758,o),
(644,832,cs),
(644,972,o),
(541,1083,o),
(374,1083,cs),
(297,1083,o),
(218,1056,o),
(152,1002,c),
(223,885,l),
(275,927,o),
(316,943,o),
(359,943,cs),
(442,943,o),
(486,891,o),
(486,829,cs),
(486,789,o),
(467,716,o),
(419,616,cs),
(125,0,l)
);
},
{
closed = 1;
nodes = (
(657,0,l),
(657,144,l),
(266,144,l),
(193,0,l)
);
}
);
width = 782;
}
);
},
{
glyphname = three.dnom;
lastChange = "2022-10-14 13:58:29 +0000";
layers = (
{
layerId = master01;
shapes = (
{
closed = 1;
nodes = (
(538,-10,o),
(656,137,o),
(656,316,cs),
(656,482,o),
(547,629,o),
(312,656,c),
(276,568,l),
(220,487,l),
(249,503,o),
(298,505,o),
(316,505,cs),
(422,505,o),
(498,431,o),
(498,313,cs),
(498,204,o),
(433,131,o),
(318,131,cs),
(276,131,o),
(225,141,o),
(182,163,c),
(125,40,l),
(171,13,o),
(248,-10,o),
(330,-10,cs)
);
},
{
closed = 1;
nodes = (
(264,527,l),
(396,532,l),
(636,1073,l),
(482,1073,l),
(220,487,l)
);
},
{
closed = 1;
nodes = (
(465,929,l),
(524,1073,l),
(186,1073,l),
(186,929,l)
);
}
);
width = 781;
}
);
},
{
glyphname = four.dnom;
lastChange = "2022-10-14 14:06:10 +0000";
layers = (
{
layerId = master01;
shapes = (
{
closed = 1;
nodes = (
(647,0,l),
(647,781,l),
(497,616,l),
(497,0,l)
);
},
{
closed = 1;
nodes = (
(767,250,l),
(767,394,l),
(320,394,l),
(503,1062,l),
(350,1062,l),
(125,250,l)
);
}
);
width = 892;
}
);
},
{
glyphname = one.numr;
lastChange = "2022-10-14 14:06:29 +0000";
layers = (
{
guides = (
{
pos = (248,539);
}
);
layerId = master01;
shapes = (
{
closed = 1;
nodes = (
(273,530,l),
(273,1633,l),
(125,1468,l),
(125,530,l)
);
}
);
width = 398;
}
);
},
{
glyphname = two.numr;
lastChange = "2022-10-14 14:00:09 +0000";
layers = (
{
guides = (
{
pos = (273,539);
}
);
layerId = master01;
shapes = (
{
closed = 1;
nodes = (
(288,539,l),
(546,1074,ls),
(615,1218,o),
(644,1297,o),
(644,1371,cs),
(644,1511,o),
(541,1622,o),
(374,1622,cs),
(297,1622,o),
(218,1595,o),
(152,1541,c),
(223,1424,l),
(275,1466,o),
(316,1482,o),
(359,1482,cs),
(442,1482,o),
(486,1430,o),
(486,1368,cs),
(486,1328,o),
(467,1255,o),
(419,1155,cs),
(125,539,l)
);
},
{
closed = 1;
nodes = (
(657,539,l),
(657,683,l),
(266,683,l),
(193,539,l)
);
}
);
width = 782;
}
);
},
{
glyphname = three.numr;
lastChange = "2022-10-14 14:00:30 +0000";
layers = (
{
guides = (
{
pos = (273,539);
}
);
layerId = master01;
shapes = (
{
closed = 1;
nodes = (
(538,529,o),
(656,676,o),
(656,855,cs),
(656,1021,o),
(547,1168,o),
(312,1195,c),
(276,1107,l),
(220,1026,l),
(249,1042,o),
(298,1044,o),
(316,1044,cs),
(422,1044,o),
(498,970,o),
(498,852,cs),
(498,743,o),
(433,670,o),
(318,670,cs),
(276,670,o),
(225,680,o),
(182,702,c),
(125,579,l),
(171,552,o),
(248,529,o),
(330,529,cs)
);
},
{
closed = 1;
nodes = (
(264,1066,l),
(396,1071,l),
(636,1612,l),
(482,1612,l),
(220,1026,l)
);
},
{
closed = 1;
nodes = (
(465,1468,l),
(524,1612,l),
(186,1612,l),
(186,1468,l)
);
}
);
width = 781;
}
);
},
{
glyphname = four.numr;
lastChange = "2022-10-14 14:00:41 +0000";
layers = (
{
guides = (
{
pos = (273,539);
}
);
layerId = master01;
shapes = (
{
closed = 1;
nodes = (
(647,539,l),
(647,1320,l),
(497,1155,l),
(497,539,l)
);
},
{
closed = 1;
nodes = (
(767,789,l),
(767,933,l),
(320,933,l),
(503,1601,l),
(350,1601,l),
(125,789,l)
);
}
);
width = 892;
}
);
},
{
glyphname = fraction;
lastChange = "2022-10-14 14:05:33 +0000";
layers = (
{
layerId = master01;
shapes = (
{
closed = 1;
nodes = (
(715,1549,l),
(579,1612,l),
(-179,30,l),
(-43,-33,l)
);
}
);
width = 515;
}
);
unicode = 8260;
},
{
glyphname = onehalf;
lastChange = "2022-10-14 14:06:43 +0000";
layers = (
{
background = {
shapes = (
{
closed = 1;
nodes = (
(1114,1549,l),
(977,1612,l),
(219,30,l),
(356,-33,l)
);
},
{
closed = 1;
nodes = (
(298,530,l),
(298,1633,l),
(150,1468,l),
(150,530,l)
);
},
{
closed = 1;
nodes = (
(1138,2,l),
(1396,537,ls),
(1465,681,o),
(1494,760,o),
(1494,834,cs),
(1494,974,o),
(1391,1085,o),
(1224,1085,cs),
(1147,1085,o),
(1068,1058,o),
(1002,1004,c),
(1073,887,l),
(1125,929,o),
(1166,945,o),
(1209,945,cs),
(1292,945,o),
(1336,893,o),
(1336,831,cs),
(1336,791,o),
(1317,718,o),
(1269,618,cs),
(975,2,l)
);
},
{
closed = 1;
nodes = (
(1507,2,l),
(1507,146,l),
(1116,146,l),
(1043,2,l)
);
}
);
};
layerId = master01;
shapes = (
{
alignment = -1;
pos = (25,0);
ref = one.numr;
},
{
alignment = -1;
pos = (398,0);
ref = fraction;
},
{
alignment = -1;
pos = (847,0);
ref = two.dnom;
}
);
width = 1654;
}
);
unicode = 189;
},
{
glyphname = onequarter;
lastChange = "2022-10-14 14:07:19 +0000";
layers = (
{
background = {
shapes = (
{
closed = 1;
nodes = (
(1104,1549,l),
(967,1612,l),
(209,30,l),
(346,-33,l)
);
},
{
closed = 1;
nodes = (
(298,531,l),
(298,1634,l),
(150,1469,l),
(150,531,l)
);
},
{
closed = 1;
nodes = (
(1378,0,l),
(1378,781,l),
(1227,616,l),
(1227,0,l)
);
},
{
closed = 1;
nodes = (
(1497,250,l),
(1497,394,l),
(1051,394,l),
(1233,1062,l),
(1080,1062,l),
(856,250,l)
);
}
);
};
layerId = master01;
shapes = (
{
alignment = -1;
pos = (25,0);
ref = one.numr;
},
{
alignment = -1;
pos = (388,0);
ref = fraction;
},
{
alignment = -1;
pos = (732,0);
ref = four.dnom;
}
);
width = 1649;
}
);
unicode = 188;
},
{
glyphname = threequarters;
lastChange = "2022-10-14 14:07:37 +0000";
layers = (
{
background = {
shapes = (
{
closed = 1;
nodes = (
(1408,1549,l),
(1271,1612,l),
(514,30,l),
(650,-33,l)
);
},
{
closed = 1;
nodes = (
(563,510,o),
(681,657,o),
(681,836,cs),
(681,1002,o),
(572,1149,o),
(337,1176,c),
(301,1088,l),
(245,1007,l),
(274,1023,o),
(323,1025,o),
(341,1025,cs),
(447,1025,o),
(523,951,o),
(523,833,cs),
(523,724,o),
(458,651,o),
(343,651,cs),
(301,651,o),
(250,661,o),
(207,683,c),
(150,560,l),
(196,533,o),
(273,510,o),
(355,510,cs)
);
},
{
closed = 1;
nodes = (
(289,1047,l),
(421,1052,l),
(661,1593,l),
(507,1593,l),
(245,1007,l)
);
},
{
closed = 1;
nodes = (
(490,1449,l),
(549,1593,l),
(211,1593,l),
(211,1449,l)
);
},
{
closed = 1;
nodes = (
(1682,0,l),
(1682,781,l),
(1532,616,l),
(1532,0,l)
);
},
{
closed = 1;
nodes = (
(1802,250,l),
(1802,394,l),
(1355,394,l),
(1538,1062,l),
(1385,1062,l),
(1160,250,l)
);
}
);
};
layerId = master01;
shapes = (
{
alignment = -1;
pos = (25,-20);
ref = three.numr;
},
{
alignment = -1;
pos = (693,0);
ref = fraction;
},
{
alignment = -1;
pos = (1035,0);
ref = four.dnom;
}
);
width = 1952;
}
);
unicode = 190;
},
{
glyphname = .notdef;
lastChange = "2022-10-14 13:55:51 +0000";
layers = (
{
layerId = master01;
shapes = (
{
closed = 1;
nodes = (
(1593,0,l),
(1593,1416,l),
(177,1416,l),
(177,0,l)
);
},
{
closed = 1;
nodes = (
(440,387,l),
(783,705,l),
(439,1043,l),
(553,1159,l),
(886,807,l),
(1214,1158,l),
(1333,1042,l),
(985,708,l),
(1333,365,l),
(1220,252,l),
(883,605,l),
(559,252,l)
);
}
);
width = 1770;
}
);
},
{
glyphname = period;
lastChange = "2022-10-14 13:55:51 +0000";
layers = (
{
layerId = master01;
shapes = (
{
closed = 1;
nodes = (
(373,-18,o),
(428,44,o),
(428,115,cs),
(428,186,o),
(373,249,o),
(289,249,cs),
(205,249,o),
(150,186,o),
(150,115,cs),
(150,44,o),
(205,-18,o),
(289,-18,cs)
);
}
);
width = 578;
}
);
unicode = 46;
},
{
glyphname = comma;
lastChange = "2022-10-14 13:55:51 +0000";
layers = (
{
layerId = master01;
shapes = (
{
closed = 1;
nodes = (
(325,-145,o),
(390,-24,o),
(390,80,c),
(390,192,o),
(321,249,o),
(243,249,cs),
(159,249,o),
(104,186,o),
(104,115,cs),
(104,48,o),
(153,-11,o),
(229,-17,c),
(214,-71,o),
(161,-145,o),
(104,-198,c),
(192,-283,l)
);
}
);
userData = {
com.typemytype.robofont.guides = (
{
angle = 90;
isGlobal = 0;
magnetic = 5;
x = 104;
y = 0;
}
);
};
width = 475;
}
);
unicode = 44;
},
{
glyphname = semicolon;
lastChange = "2022-10-14 13:55:51 +0000";
layers = (
{
layerId = master01;
shapes = (
{
closed = 1;
nodes = (
(375,-134,o),
(427,-17,o),
(427,87,cs),
(427,194,o),
(363,249,o),
(285,249,cs),
(201,249,o),
(146,186,o),
(146,115,cs),
(146,48,o),
(195,-11,o),
(271,-17,c),
(253,-71,o),
(202,-139,o),
(145,-192,c),
(233,-277,l)
);
},
{
closed = 1;
nodes = (
(368,612,o),
(423,674,o),
(423,745,cs),
(423,816,o),
(368,879,o),
(284,879,cs),
(200,879,o),
(145,816,o),
(145,745,cs),
(145,674,o),
(200,612,o),
(284,612,cs)
);
}
);
width = 571;
}
);
unicode = 59;
},
{
glyphname = exclam;
lastChange = "2022-10-14 13:55:51 +0000";
layers = (
{
layerId = master01;
shapes = (
{
closed = 1;
nodes = (
(388,531,l),
(388,1593,l),
(198,1593,l),
(198,531,l)
);
},
{
closed = 1;
nodes = (
(375,-18,o),
(431,44,o),
(431,115,cs),
(431,186,o),
(375,249,o),
(290,249,cs),
(204,249,o),
(148,186,o),
(148,115,cs),
(148,44,o),
(204,-18,o),
(290,-18,cs)
);
}
);
width = 578;
}
);
unicode = 33;
},
{
glyphname = question;
lastChange = "2022-10-14 13:55:51 +0000";
layers = (
{
layerId = master01;
shapes = (
{
closed = 1;
nodes = (
(474,531,l),
(474,641,ls),
(484,1013,o),
(778,988,o),
(778,1286,cs),
(778,1484,o),
(648,1611,o),
(422,1611,cs),
(333,1611,o),
(240,1588,o),
(153,1538,c),
(235,1383,l),
(283,1411,o),
(337,1435,o),
(402,1435,cs),
(516,1435,o),
(586,1363,o),
(586,1266,cs),
(586,1081,o),
(285,1027,o),
(285,644,cs),
(285,531,l)
);
},
{
closed = 1;
nodes = (
(492,-18,o),
(548,44,o),
(548,115,cs),
(548,186,o),
(492,249,o),
(406,249,cs),
(320,249,o),
(264,186,o),
(264,115,cs),
(264,44,o),
(320,-18,o),
(406,-18,cs)
);
}
);
width = 931;
}
);
unicode = 63;
},
{
glyphname = asterisk;
lastChange = "2022-10-14 13:55:51 +0000";
layers = (
{
layerId = master01;
shapes = (
{
closed = 1;
nodes = (
(550,1134,l),
(754,979,l),
(847,1107,l),
(632,1253,l),
(845,1399,l),
(752,1527,l),
(547,1370,l),
(475,1619,l),
(324,1570,l),
(410,1324,l),
(150,1331,l),
(150,1173,l),
(412,1179,l),
(325,932,l),
(475,883,l)
);
}
);
width = 997;
}
);
unicode = 42;
},
{
glyphname = numbersign;
lastChange = "2022-10-14 13:55:51 +0000";
layers = (
{
layerId = master01;
shapes = (
{
closed = 1;
nodes = (
(776,0,l),
(1070,1417,l),
(922,1417,l),
(628,0,l)
);
},
{
closed = 1;
nodes = (
(1205,383,l),
(1205,531,l),
(90,531,l),
(90,383,l)
);
},
{
closed = 1;
nodes = (
(365,0,l),
(659,1417,l),
(511,1417,l),
(217,0,l)
);
},
{
closed = 1;
nodes = (
(1205,914,l),
(1205,1062,l),
(90,1062,l),
(90,914,l)
);
}
);
width = 1290;
}
);
unicode = 35;
},
{
glyphname = slash;
lastChange = "2022-10-14 13:55:51 +0000";
layers = (
{
layerId = master01;
shapes = (
{
closed = 1;
nodes = (
(804,1559,l),
(648,1612,l),
(96,34,l),
(251,-19,l)
);
}
);
width = 881;
}
);
unicode = 47;
},
{
glyphname = backslash;
lastChange = "2022-10-14 13:55:51 +0000";
layers = (
{
layerId = master01;
shapes = (
{
closed = 1;
nodes = (
(785,34,l),
(234,1612,l),
(78,1559,l),
(630,-19,l)
);
}
);
width = 881;
}
);
unicode = 92;
},
{
glyphname = hyphen;
lastChange = "2022-10-14 13:55:51 +0000";
layers = (
{
layerId = master01;
shapes = (
{
closed = 1;
nodes = (
(577,531,l),
(577,699,l),
(150,699,l),
(150,531,l)
);
}
);
width = 727;
}
);
unicode = 45;
},
{
glyphname = endash;
lastChange = "2022-10-14 13:55:51 +0000";
layers = (
{
layerId = master01;
shapes = (
{
closed = 1;
nodes = (
(775,531,l),
(775,699,l),
(150,699,l),
(150,531,l)
);
}
);
width = 926;
}
);
unicode = 8211;
},
{
glyphname = emdash;
lastChange = "2022-10-14 13:55:51 +0000";
layers = (
{
layerId = master01;
shapes = (
{
closed = 1;
nodes = (
(1136,531,l),
(1136,699,l),
(150,699,l),
(150,531,l)
);
}
);
width = 1286;
}
);
unicode = 8212;
},
{
glyphname = underscore;
lastChange = "2022-10-14 13:55:51 +0000";
layers = (
{
layerId = master01;
shapes = (
{
closed = 1;
nodes = (
(1100,-353,l),
(1100,-205,l),
(-50,-205,l),
(-50,-353,l)
);
}
);
width = 1050;
}
);
unicode = 95;
},
{
glyphname = parenleft;
lastChange = "2022-10-14 13:55:51 +0000";
layers = (
{
layerId = master01;
shapes = (
{
closed = 1;
nodes = (
(692,64,l),
(477,251,o),
(359,497,o),
(359,796,cs),
(359,1095,o),
(477,1341,o),
(692,1528,c),
(692,1736,l),
(398,1534,o),
(188,1212,o),
(188,796,cs),
(188,380,o),
(398,58,o),
(692,-144,c)
);
}
);
userData = {
com.typemytype.robofont.guides = (
{
angle = 0;
isGlobal = 0;
magnetic = 5;
x = 0;
y = 622;
},
{
angle = 0;
isGlobal = 0;
magnetic = 5;
x = 0;
y = -305;
}
);
};
width = 831;
}
);
unicode = 40;
},
{
glyphname = parenright;
lastChange = "2022-10-14 13:55:51 +0000";
layers = (
{
layerId = master01;
shapes = (
{
closed = 1;
nodes = (
(481,58,o),
(692,380,o),
(692,796,cs),
(692,1212,o),
(481,1534,o),
(188,1736,c),
(188,1528,l),
(402,1341,o),
(520,1095,o),
(520,796,c),
(520,497,o),
(402,251,o),
(188,64,c),
(188,-144,l)
);
}
);
width = 809;
}
);
unicode = 41;
},
{
glyphname = braceleft;
lastChange = "2022-10-14 13:55:51 +0000";
layers = (
{
layerId = master01;
shapes = (
{
closed = 1;
nodes = (
(682,-158,l),
(682,0,l),
(601,0,ls),
(527,0,o),
(494,36,o),
(494,115,cs),
(494,357,ls),
(494,520,o),
(455,672,o),
(310,797,c),
(455,920,o),
(494,1072,o),
(494,1235,cs),
(494,1478,ls),
(494,1557,o),
(527,1593,o),
(601,1593,cs),
(682,1593,l),
(682,1751,l),
(601,1751,ls),
(406,1751,o),
(322,1664,o),
(322,1478,cs),
(322,1235,ls),
(322,1048,o),
(270,940,o),
(78,796,c),
(270,652,o),
(322,544,o),
(322,357,cs),
(322,115,ls),
(322,-71,o),
(406,-158,o),
(601,-158,cs)
);
}
);
userData = {
com.typemytype.robofont.guides = (
{
angle = 0;
isGlobal = 0;
magnetic = 5;
x = 0;
y = 620;
}
);
};
width = 833;
}
);
unicode = 123;
},
{
glyphname = braceright;
lastChange = "2022-10-14 13:55:51 +0000";
layers = (
{
layerId = master01;
shapes = (
{
closed = 1;
nodes = (
(235,-158,ls),
(429,-158,o),
(513,-71,o),
(513,115,cs),
(513,357,ls),
(513,544,o),
(565,652,o),
(758,796,c),
(565,940,o),
(513,1048,o),
(513,1235,cs),
(513,1478,ls),
(513,1664,o),
(429,1751,o),
(235,1751,cs),
(153,1751,l),
(153,1593,l),
(235,1593,ls),
(308,1593,o),
(342,1557,o),
(342,1478,cs),
(342,1235,ls),
(342,1072,o),
(380,919,o),
(525,796,c),
(380,671,o),
(342,520,o),
(342,357,cs),
(342,115,ls),
(342,36,o),
(308,0,o),
(235,0,cs),
(153,0,l),
(153,-158,l)
);
}
);
userData = {
com.typemytype.robofont.guides = (
{
angle = 0;
isGlobal = 0;
magnetic = 5;
x = 0;
y = 620;
},
{
angle = 0;
isGlobal = 0;
magnetic = 5;
x = 0;
y = -305;
}
);
};
width = 833;
}
);
unicode = 125;
},
{
glyphname = bracketleft;
lastChange = "2022-10-14 13:55:51 +0000";
layers = (
{
layerId = master01;
shapes = (
{
closed = 1;
nodes = (
(538,-158,l),
(538,0,l),
(359,0,l),
(359,1593,l),
(538,1593,l),
(538,1751,l),
(188,1751,l),
(188,-158,l)
);
}
);
width = 692;
}
);
unicode = 91;
},
{
glyphname = bracketright;
lastChange = "2022-10-14 13:55:51 +0000";
layers = (
{
layerId = master01;
shapes = (
{
closed = 1;
nodes = (
(503,-158,l),
(503,1751,l),
(153,1751,l),
(153,1593,l),
(331,1593,l),
(331,0,l),
(153,0,l),
(153,-158,l)
);
}
);
userData = {
com.typemytype.robofont.guides = (
{
angle = 0;
isGlobal = 0;
magnetic = 5;
x = 0;
y = -305;
}
);
};
width = 692;
}
);
unicode = 93;
},
{
glyphname = quoteleft;
lastChange = "2022-10-14 13:55:51 +0000";
layers = (
{
layerId = master01;
shapes = (
{
closed = 1;
nodes = (
(387,1062,o),
(442,1125,o),
(442,1196,cs),
(442,1263,o),
(393,1322,o),
(317,1328,c),
(332,1382,o),
(385,1455,o),
(442,1508,c),
(354,1593,l),
(221,1455,o),
(156,1335,o),
(156,1231,cs),
(156,1119,o),
(225,1062,o),
(303,1062,cs)
);
}
);
width = 571;
}
);
unicode = 8216;
},
{
glyphname = quoteright;
lastChange = "2022-10-14 13:55:51 +0000";
layers = (
{
layerId = master01;
shapes = (
{
closed = 1;
nodes = (
(350,1201,o),
(415,1321,o),
(415,1425,cs),
(415,1537,o),
(346,1594,o),
(268,1594,cs),
(184,1594,o),
(129,1531,o),
(129,1460,cs),
(129,1393,o),
(178,1334,o),
(254,1328,c),
(239,1274,o),
(186,1201,o),
(129,1148,c),
(217,1063,l)
);
}
);
width = 571;
}
);
unicode = 8217;
},
{
glyphname = quotereversed;
lastChange = "2022-10-14 13:55:51 +0000";
layers = (
{
layerId = master01;
shapes = (
{
closed = 1;
nodes = (
(415,1148,l),
(358,1201,o),
(305,1274,o),
(290,1328,c),
(366,1334,o),
(415,1393,o),
(415,1460,cs),
(415,1531,o),
(360,1594,o),
(276,1594,cs),
(198,1594,o),
(129,1537,o),
(129,1425,cs),
(129,1321,o),
(194,1201,o),
(327,1063,c)
);
}
);
width = 571;
}
);
unicode = 8219;
},
{
glyphname = guilsinglleft;
lastChange = "2022-10-14 13:55:51 +0000";
layers = (
{
layerId = master01;
shapes = (
{
closed = 1;
nodes = (
(530,223,l),
(276,531,l),
(530,839,l),
(420,931,l),
(88,531,l),
(420,131,l)
);
}
);
width = 702;
}
);
unicode = 8249;
},
{
glyphname = guilsinglright;
lastChange = "2022-10-14 13:55:51 +0000";
layers = (
{
layerId = master01;
shapes = (
{
closed = 1;
nodes = (
(530,531,l),
(198,931,l),
(88,839,l),
(342,531,l),
(88,223,l),
(198,131,l)
);
}
);
width = 702;
}
);
unicode = 8250;
},
{
glyphname = quotesingle;
lastChange = "2022-10-14 13:55:51 +0000";
layers = (
{
layerId = master01;
shapes = (
{
closed = 1;
nodes = (
(350,1062,l),
(350,1594,l),
(180,1594,l),
(180,1062,l)
);
}
);
width = 530;
}
);
unicode = 39;
},
{
glyphname = florin;
lastChange = "2022-10-14 13:55:51 +0000";
layers = (
{
layerId = master01;
shapes = (
{
closed = 1;
nodes = (
(225,0,l),
(405,1120,ls),
(431,1288,o),
(512,1419,o),
(643,1437,c),
(671,1612,l),
(446,1604,o),
(267,1396,o),
(223,1122,cs),
(44,0,l)
);
},
{
closed = 1;
nodes = (
(550,894,l),
(577,1062,l),
(132,1062,l),
(104,894,l)
);
}
);
width = 576;
}
);
unicode = 402;
},
{
glyphname = at;
lastChange = "2022-10-14 13:55:51 +0000";
layers = (
{
layerId = master01;
shapes = (
{
closed = 1;
nodes = (
(1154,-19,o),
(1376,228,o),
(1376,553,cs),
(1376,914,o),
(1101,1146,o),
(780,1146,cs),
(427,1146,o),
(152,864,o),
(153,438,cs),
(154,0,l),
(334,0,l),
(335,438,ls),
(336,752,o),
(529,971,o),
(792,971,cs),
(1025,971,o),
(1194,799,o),
(1194,540,cs),
(1194,381,o),
(1130,222,o),
(1007,157,c),
(1007,815,l),
(647,815,o),
(458,633,o),
(458,391,cs),
(458,171,o),
(613,-19,o),
(896,-19,c)
);
},
{
closed = 1;
nodes = (
(706,176,o),
(640,265,o),
(640,397,cs),
(640,534,o),
(712,611,o),
(833,636,c),
(833,150,l)
);
}
);
userData = {
com.typemytype.robofont.guides = (
{
angle = 0;
isGlobal = 0;
magnetic = 5;
x = 0;
y = 1147;
},
{
angle = 90;
isGlobal = 0;
magnetic = 5;
x = 133;
y = 0;
}
);
};
width = 1468;
}
);
unicode = 64;
},
{
glyphname = ampersand;
lastChange = "2022-10-14 13:55:51 +0000";
layers = (
{
layerId = master01;
shapes = (
{
closed = 1;
nodes = (
(1077,87,l),
(644,706,ls),
(445,990,o),
(401,1149,o),
(401,1250,cs),
(401,1374,o),
(467,1437,o),
(569,1437,cs),
(627,1437,o),
(682,1416,o),
(732,1378,c),
(836,1510,l),
(761,1573,o),
(671,1612,o),
(562,1612,cs),
(346,1612,o),
(215,1461,o),
(215,1252,cs),
(215,1084,o),
(299,883,o),
(489,617,cs),
(942,-18,l)
);
},
{
closed = 1;
nodes = (
(829,-18,o),
(993,190,o),
(991,529,cs),
(990,728,l),
(1155,728,l),
(1155,885,l),
(743,885,l),
(743,728,l),
(814,728,l),
(814,529,ls),
(814,272,o),
(724,157,o),
(572,157,cs),
(448,157,o),
(349,234,o),
(349,407,cs),
(349,498,o),
(376,628,o),
(505,764,c),
(377,889,l),
(234,720,o),
(163,551,o),
(163,395,cs),
(163,164,o),
(317,-18,o),
(565,-18,cs)
);
}
);
userData = {
com.typemytype.robofont.guides = (
{
angle = 0;
isGlobal = 0;
magnetic = 5;
x = 0;
y = 465;
},
{
angle = 90;
isGlobal = 0;
magnetic = 5;
x = 122;
y = 0;
}
);
};
width = 1252;
}
);
unicode = 38;
},
{
glyphname = paragraph;
lastChange = "2022-10-14 13:55:51 +0000";
layers = (
{
layerId = master01;
shapes = (
{
closed = 1;
nodes = (
(749,-178,l),
(749,1445,l),
(905,1445,l),
(905,-177,l),
(1056,-177,l),
(1056,1445,l),
(1193,1445,l),
(1193,1593,l),
(775,1593,ls),
(406,1593,o),
(153,1343,o),
(153,1016,cs),
(153,750,o),
(309,532,o),
(599,450,c),
(599,-178,l)
);
},
{
closed = 1;
nodes = (
(441,653,o),
(311,796,o),
(311,1016,cs),
(310,1236,o),
(441,1379,o),
(600,1425,c),
(600,607,l)
);
}
);
userData = {
com.typemytype.robofont.guides = (
{
angle = 0;
isGlobal = 0;
magnetic = 5;
x = 0;
y = 1035;
},
{
angle = 90;
isGlobal = 0;
magnetic = 5;
x = 600;
y = 0;
}
);
};
width = 1347;
}
);
unicode = 182;
},
{
glyphname = section;
lastChange = "2022-10-14 13:55:51 +0000";
layers = (
{
layerId = master01;
shapes = (
{
closed = 1;
nodes = (
(693,-354,o),
(863,-209,o),
(863,20,cs),
(863,173,o),
(786,286,o),
(655,399,cs),
(516,518,ls),
(401,617,o),
(382,681,o),
(382,731,cs),
(382,833,o),
(451,908,o),
(562,910,c),
(390,1043,l),
(260,989,o),
(186,857,o),
(186,730,cs),
(186,600,o),
(251,496,o),
(345,413,cs),
(477,296,ls),
(595,193,o),
(666,122,o),
(666,20,cs),
(666,-93,o),
(589,-171,o),
(463,-171,cs),
(379,-171,o),
(307,-135,o),
(241,-96,c),
(153,-262,l),
(232,-315,o),
(347,-354,o),
(464,-354,cs)
);
},
{
closed = 1;
nodes = (
(774,280,o),
(863,431,o),
(863,560,cs),
(863,713,o),
(786,826,o),
(655,939,cs),
(516,1058,ls),
(401,1157,o),
(382,1221,o),
(382,1271,cs),
(382,1368,o),
(453,1440,o),
(567,1440,cs),
(632,1440,o),
(686,1416,o),
(734,1388,c),
(816,1543,l),
(729,1593,o),
(636,1616,o),
(547,1616,cs),
(321,1616,o),
(186,1468,o),
(186,1270,cs),
(186,1140,o),
(251,1036,o),
(345,953,cs),
(477,836,ls),
(595,733,o),
(666,662,o),
(666,560,cs),
(666,467,o),
(618,396,o),
(538,370,c),
(639,223,l)
);
}
);
userData = {
com.typemytype.robofont.guides = (
{
angle = 90;
isGlobal = 0;
magnetic = 5;
x = 203;
y = 0;
},
{
angle = 90;
isGlobal = 0;
magnetic = 5;
x = 864;
y = 0;
}
);
};
width = 1015;
}
);
unicode = 167;
},
{
glyphname = copyright;
lastChange = "2022-10-14 13:55:51 +0000";
layers = (
{
layerId = master01;
shapes = (
{
closed = 1;
nodes = (
(1010,-19,o),
(1274,245,o),
(1274,796,cs),
(1274,1347,o),
(1010,1611,o),
(699,1611,cs),
(388,1611,o),
(123,1347,o),
(123,796,cs),
(123,245,o),
(388,-19,o),
(699,-19,cs)
);
},
{
closed = 1;
nodes = (
(810,364,o),
(870,384,o),
(917,414,c),
(855,538,l),
(823,519,o),
(784,500,o),
(738,500,cs),
(657,500,o),
(575,579,o),
(575,796,cs),
(575,1013,o),
(657,1091,o),
(738,1091,cs),
(784,1091,o),
(823,1073,o),
(855,1054,c),
(917,1178,l),
(870,1208,o),
(810,1228,o),
(738,1228,cs),
(563,1228,o),
(428,1085,o),
(428,796,cs),
(428,507,o),
(563,364,o),
(738,364,cs)
);
},
{
closed = 1;
nodes = (
(481,119,o),
(269,316,o),
(269,796,cs),
(269,1276,o),
(481,1473,o),
(699,1473,cs),
(916,1473,o),
(1123,1281,o),
(1128,796,cs),
(1128,316,o),
(916,119,o),
(699,119,cs)
);
}
);
userData = {
com.typemytype.robofont.guides = (
{
angle = 0;
isGlobal = 0;
magnetic = 5;
x = 0;
y = 1258;
},
{
angle = 0;
isGlobal = 0;
magnetic = 5;
x = 0;
y = 384;
}
);
};
width = 1395;
}
);
unicode = 169;
},
{
glyphname = registered;
lastChange = "2022-10-14 13:55:51 +0000";
layers = (
{
layerId = master01;
shapes = (
{
closed = 1;
nodes = (
(1010,-19,o),
(1274,245,o),
(1274,796,cs),
(1274,1347,o),
(1010,1611,o),
(699,1611,cs),
(388,1611,o),
(123,1347,o),
(123,796,cs),
(123,245,o),
(388,-19,o),
(699,-19,cs)
);
},
{
closed = 1;
nodes = (
(962,384,l),
(795,747,l),
(670,714,l),
(812,384,l)
);
},
{
closed = 1;
nodes = (
(481,119,o),
(269,316,o),
(269,796,cs),
(269,1276,o),
(481,1473,o),
(700,1473,cs),
(916,1473,o),
(1128,1280,o),
(1128,798,cs),
(1128,315,o),
(916,119,o),
(699,119,cs)
);
},
{
closed = 1;
nodes = (
(637,384,l),
(637,658,l),
(815,704,o),
(914,808,o),
(914,960,cs),
(914,1126,o),
(797,1259,o),
(505,1259,c),
(505,384,l)
);
},
{
closed = 1;
nodes = (
(637,1126,l),
(727,1110,o),
(777,1042,o),
(777,955,cs),
(777,872,o),
(732,814,o),
(637,786,c)
);
}
);
userData = {
com.typemytype.robofont.guides = (
{
angle = 0;
isGlobal = 0;
magnetic = 5;
x = 0;
y = 1313;
},
{
angle = 0;
isGlobal = 0;
magnetic = 5;
x = 0;
y = 274;
}
);
};
width = 1395;
}
);
unicode = 174;
},
{
glyphname = trademark;
lastChange = "2022-10-14 13:55:51 +0000";
layers = (
{
layerId = master01;
shapes = (
{
closed = 1;
nodes = (
(1086,680,l),
(1086,985,l),
(1080,1274,l),
(1310,801,l),
(1310,799,l),
(1310,800,l),
(1520,1274,l),
(1515,983,l),
(1515,680,l),
(1681,680,l),
(1681,1593,l),
(1531,1593,l),
(1311,1132,l),
(1071,1593,l),
(920,1593,l),
(920,680,l)
);
},
{
closed = 1;
nodes = (
(547,681,l),
(547,1525,l),
(381,1525,l),
(381,681,l)
);
},
{
closed = 1;
nodes = (
(757,1447,l),
(757,1593,l),
(171,1593,l),
(171,1447,l)
);
}
);
width = 1872;
}
);
unicode = 8482;
},
{
glyphname = degree;
lastChange = "2022-10-14 13:55:51 +0000";
layers = (
{
layerId = master01;
shapes = (
{
closed = 1;
nodes = (
(517,984,o),
(621,1105,o),
(621,1299,cs),
(621,1493,o),
(517,1614,o),
(369,1614,cs),
(221,1614,o),
(117,1493,o),
(117,1299,cs),
(117,1105,o),
(221,984,o),
(369,984,cs)
);
},
{
closed = 1;
nodes = (
(309,1119,o),
(261,1168,o),
(261,1299,cs),
(261,1430,o),
(309,1479,o),
(369,1479,cs),
(429,1479,o),
(477,1430,o),
(477,1299,cs),
(477,1168,o),
(429,1119,o),
(369,1119,cs)
);
}
);
width = 739;
}
);
unicode = 176;
},
{
glyphname = minute;
lastChange = "2022-10-14 13:55:51 +0000";
layers = (
{
layerId = master01;
shapes = (
{
closed = 1;
nodes = (
(320,1062,l),
(380,1594,l),
(210,1594,l),
(150,1062,l)
);
}
);
width = 530;
}
);
unicode = 8242;
},
{
glyphname = bar;
lastChange = "2022-10-14 13:55:51 +0000";
layers = (
{
layerId = master01;
shapes = (
{
closed = 1;
nodes = (
(364,-177,l),
(364,1771,l),
(213,1771,l),
(213,-177,l)
);
}
);
width = 576;
}
);
unicode = 124;
},
{
glyphname = brokenbar;
lastChange = "2022-10-14 13:55:51 +0000";
layers = (
{
layerId = master01;
shapes = (
{
closed = 1;
nodes = (
(364,1062,l),
(364,1771,l),
(213,1771,l),
(213,1062,l)
);
},
{
closed = 1;
nodes = (
(364,-177,l),
(364,532,l),
(213,532,l),
(213,-177,l)
);
}
);
width = 576;
}
);
unicode = 166;
},
{
glyphname = dagger;
lastChange = "2022-10-14 13:55:51 +0000";
layers = (
{
layerId = master01;
shapes = (
{
closed = 1;
nodes = (
(509,170,l),
(509,1699,l),
(358,1699,l),
(358,170,l)
);
},
{
closed = 1;
nodes = (
(674,1192,l),
(674,1360,l),
(194,1360,l),
(194,1192,l)
);
}
);
width = 868;
}
);
unicode = 8224;
},
{
glyphname = daggerdbl;
lastChange = "2022-10-14 13:55:51 +0000";
layers = (
{
layerId = master01;
shapes = (
{
closed = 1;
nodes = (
(509,170,l),
(509,1699,l),
(358,1699,l),
(358,170,l)
);
},
{
closed = 1;
nodes = (
(674,508,l),
(674,676,l),
(194,676,l),
(194,508,l)
);
},
{
closed = 1;
nodes = (
(674,1192,l),
(674,1360,l),
(194,1360,l),
(194,1192,l)
);
}
);
width = 868;
}
);
unicode = 8225;
},
{
glyphname = estimated;
lastChange = "2022-10-14 13:55:51 +0000";
layers = (
{
layerId = master01;
shapes = (
{
closed = 1;
nodes = (
(934,-5,o),
(1068,61,o),
(1222,230,c),
(1101,230,l),
(1008,125,o),
(854,42,o),
(690,42,cs),
(445,42,o),
(280,190,o),
(280,251,cs),
(280,541,ls),
(280,570,o),
(291,572,o),
(306,572,cs),
(1340,572,l),
(1322,966,o),
(1074,1182,o),
(690,1182,cs),
(310,1182,o),
(40,944,o),
(40,588,cs),
(40,227,o),
(310,-5,o),
(690,-5,cs)
);
},
{
closed = 1;
nodes = (
(287,608,o),
(280,614,o),
(280,624,cs),
(280,933,ls),
(280,985,o),
(455,1141,o),
(688,1141,cs),
(873,1141,o),
(1098,1015,o),
(1098,921,cs),
(1098,636,ls),
(1098,615,o),
(1094,608,o),
(1070,608,cs),
(306,608,ls)
);
}
);
width = 1380;
}
);
unicode = 8494;
},
{
glyphname = cedi;
lastChange = "2022-10-14 13:55:51 +0000";
layers = (
{
layerId = master01;
shapes = (
{
closed = 1;
nodes = (
(658,-19,o),
(718,-6,o),
(784,22,c),
(720,179,l),
(695,168,o),
(645,162,o),
(609,162,cs),
(438,162,o),
(289,335,o),
(289,796,cs),
(289,1257,o),
(438,1431,o),
(609,1431,cs),
(645,1431,o),
(715,1425,o),
(740,1414,c),
(784,1570,l),
(718,1598,o),
(658,1611,o),
(583,1611,cs),
(321,1611,o),
(97,1394,o),
(97,796,cs),
(97,208,o),
(321,-19,o),
(583,-19,cs)
);
},
{
closed = 1;
nodes = (
(605,-170,l),
(605,1778,l),
(454,1778,l),
(454,-170,l)
);
}
);
width = 801;
}
);
unicode = 8373;
},
{
glyphname = cent;
lastChange = "2022-10-14 13:55:51 +0000";
layers = (
{
layerId = master01;
shapes = (
{
closed = 1;
nodes = (
(518,927,l),
(518,1238,l),
(367,1238,l),
(367,927,l)
);
},
{
closed = 1;
nodes = (
(518,-176,l),
(518,135,l),
(367,135,l),
(367,-176,l)
);
},
{
pos = (-1,0);
ref = c;
}
);
width = 785;
}
);
unicode = 162;
},
{
glyphname = currency;
lastChange = "2022-10-14 13:55:51 +0000";
layers = (
{
layerId = master01;
shapes = (
{
closed = 1;
nodes = (
(741,366,o),
(904,525,o),
(904,723,cs),
(904,921,o),
(741,1081,o),
(539,1081,cs),
(337,1081,o),
(174,921,o),
(174,723,cs),
(174,525,o),
(337,366,o),
(539,366,cs)
);
},
{
closed = 1;
nodes = (
(399,480,l),
(284,579,l),
(88,388,l),
(197,281,l)
);
},
{
closed = 1;
nodes = (
(408,962,l),
(199,1167,l),
(89,1060,l),
(293,861,l)
);
},
{
closed = 1;
nodes = (
(992,389,l),
(809,569,l),
(683,477,l),
(883,282,l)
);
},
{
closed = 1;
nodes = (
(428,526,o),
(338,615,o),
(338,723,cs),
(338,831,o),
(428,921,o),
(539,921,cs),
(649,921,o),
(741,831,o),
(741,723,cs),
(741,615,o),
(649,526,o),
(539,526,cs)
);
},
{
closed = 1;
nodes = (
(992,1060,l),
(883,1167,l),
(690,977,l),
(790,862,l)
);
}
);
userData = {
com.typemytype.robofont.guides = (
{
angle = 0;
isGlobal = 0;
magnetic = 5;
x = 0;
y = 1116;
},
{
angle = 0;
isGlobal = 0;
magnetic = 5;
x = 0;
y = 724;
},
{
angle = 90;
isGlobal = 0;
magnetic = 5;
x = 540;
y = 0;
}
);
};
width = 1082;
}
);
unicode = 164;
},
{
glyphname = dollar;
lastChange = "2022-10-14 13:55:51 +0000";
layers = (
{
layerId = master01;
shapes = (
{
closed = 1;
nodes = (
(506,-177,l),
(506,134,l),
(355,134,l),
(355,-177,l)
);
},
{
pos = (9,0);
ref = S;
},
{
closed = 1;
nodes = (
(506,1514,l),
(506,1772,l),
(355,1772,l),
(355,1514,l)
);
}
);
userData = {
com.typemytype.robofont.guides = (
{
angle = 0;
isGlobal = 0;
magnetic = 5;
x = 0;
y = 1265;
},
{
angle = 0;
isGlobal = 0;
magnetic = 5;
x = 0;
y = 157;
},
{
angle = 0;
isGlobal = 0;
magnetic = 5;
x = 0;
y = 316;
}
);
};
width = 905;
}
);
unicode = 36;
},
{
glyphname = euro;
lastChange = "2022-10-14 13:55:51 +0000";
layers = (
{
layerId = master01;
shapes = (
{
closed = 1;
nodes = (
(761,835,l),
(761,1011,l),
(84,1011,l),
(84,835,l)
);
},
{
closed = 1;
nodes = (
(761,531,l),
(761,707,l),
(84,707,l),
(84,531,l)
);
},
{
pos = (121,0);
ref = C;
}
);
width = 1082;
}
);
unicode = 8364;
},
{
glyphname = guarani;
lastChange = "2022-10-14 13:55:51 +0000";
layers = (
{
anchors = (
{
name = bottom;
pos = (520,0);
},
{
name = btm;
pos = (471,-170);
},
{
name = top;
pos = (575,1700);
}
);
layerId = master01;
shapes = (
{
closed = 1;
nodes = (
(679,161,l),
(453,201,o),
(290,365,o),
(290,824,cs),
(290,1217,o),
(463,1429,o),
(658,1429,cs),
(699,1429,o),
(754,1423,o),
(791,1412,c),
(876,1570,l),
(795,1598,o),
(734,1611,o),
(654,1611,cs),
(334,1611,o),
(96,1327,o),
(96,826,cs),
(96,211,o),
(424,-35,o),
(868,-18,c)
);
},
{
closed = 1;
nodes = (
(651,-177,l),
(651,97,l),
(500,97,l),
(500,-177,l)
);
},
{
closed = 1;
nodes = (
(868,643,l),
(869,643,l),
(869,811,l),
(592,811,l),
(592,643,l),
(679,643,l),
(679,110,l),
(868,-18,l)
);
},
{
closed = 1;
nodes = (
(651,1519,l),
(651,1793,l),
(500,1793,l),
(500,1519,l)
);
}
);
width = 940;
}
);
unicode = 8370;
},
{
glyphname = manat;
lastChange = "2022-10-14 13:55:51 +0000";
layers = (
{
layerId = master01;
shapes = (
{
closed = 1;
nodes = (
(326,0,l),
(326,1127,ls),
(326,1348,o),
(396,1428,o),
(559,1428,cs),
(720,1428,o),
(791,1348,o),
(791,1127,cs),
(791,0,l),
(981,0,l),
(981,1150,ls),
(981,1472,o),
(838,1612,o),
(559,1612,cs),
(279,1612,o),
(136,1472,o),
(136,1150,cs),
(136,0,l)
);
},
{
closed = 1;
nodes = (
(634,0,l),
(634,1948,l),
(483,1948,l),
(483,0,l)
);
}
);
width = 1119;
}
);
unicode = 8380;
},
{
glyphname = sterling;
lastChange = "2022-10-14 13:55:51 +0000";
layers = (
{
layerId = master01;
shapes = (
{
closed = 1;
nodes = (
(341,0,l),
(459,271,o),
(507,454,o),
(507,680,cs),
(507,893,o),
(396,1015,o),
(396,1229,cs),
(396,1354,o),
(471,1437,o),
(590,1437,cs),
(646,1437,o),
(735,1416,o),
(817,1355,c),
(897,1502,l),
(806,1579,o),
(690,1612,o),
(580,1612,cs),
(347,1612,o),
(199,1442,o),
(199,1229,cs),
(199,1035,o),
(310,849,o),
(310,678,cs),
(310,498,o),
(265,271,o),
(138,0,c)
);
},
{
closed = 1;
nodes = (
(883,0,l),
(883,176,l),
(353,176,l),
(221,0,l)
);
},
{
closed = 1;
nodes = (
(800,676,l),
(800,852,l),
(143,852,l),
(143,676,l)
);
}
);
userData = {
com.typemytype.robofont.guides = (
{
angle = 90;
isGlobal = 0;
magnetic = 5;
x = 822;
y = 0;
},
{
angle = 90;
isGlobal = 0;
magnetic = 5;
x = 134;
y = 0;
}
);
};
width = 1036;
}
);
unicode = 163;
},
{
glyphname = yen;
lastChange = "2022-10-14 13:55:51 +0000";
layers = (
{
layerId = master01;
shapes = (
{
closed = 1;
nodes = (
(826,373,l),
(826,531,l),
(80,531,l),
(80,373,l)
);
},
{
closed = 1;
nodes = (
(364,657,l),
(364,815,l),
(80,815,l),
(80,657,l)
);
},
{
pos = (31,0);
ref = Y;
},
{
closed = 1;
nodes = (
(826,657,l),
(826,815,l),
(542,815,l),
(542,657,l)
);
}
);
width = 936;
}
);
unicode = 165;
},
{
glyphname = divisionslash;
lastChange = "2022-10-14 13:55:51 +0000";
layers = (
{
layerId = master01;
shapes = (
{
closed = 1;
nodes = (
(931,1559,l),
(775,1612,l),
(223,34,l),
(378,-19,l)
);
}
);
width = 1200;
}
);
unicode = 8725;
},
{
glyphname = plus;
lastChange = "2022-10-14 13:55:51 +0000";
layers = (
{
layerId = master01;
shapes = (
{
closed = 1;
nodes = (
(608,304,l),
(608,579,l),
(883,579,l),
(883,730,l),
(608,730,l),
(608,1006,l),
(451,1006,l),
(451,730,l),
(176,730,l),
(176,579,l),
(451,579,l),
(451,304,l)
);
}
);
width = 1061;
}
);
unicode = 43;
},
{
glyphname = minus;
lastChange = "2022-10-14 13:55:51 +0000";
layers = (
{
layerId = master01;
shapes = (
{
closed = 1;
nodes = (
(577,531,l),
(577,699,l),
(150,699,l),
(150,531,l)
);
}
);
width = 727;
}
);
unicode = 8722;
},
{
glyphname = multiply;
lastChange = "2022-10-14 13:55:51 +0000";
layers = (
{
layerId = master01;
shapes = (
{
closed = 1;
nodes = (
(452,547,l),
(646,353,l),
(758,465,l),
(563,659,l),
(758,853,l),
(651,960,l),
(456,766,l),
(262,960,l),
(150,848,l),
(345,654,l),
(150,460,l),
(257,353,l)
);
}
);
width = 907;
}
);
unicode = 215;
},
{
glyphname = divide;
lastChange = "2022-10-14 13:55:51 +0000";
layers = (
{
layerId = master01;
shapes = (
{
closed = 1;
nodes = (
(883,579,l),
(883,730,l),
(176,730,l),
(176,579,l)
);
},
{
closed = 1;
nodes = (
(620,212,o),
(675,274,o),
(675,345,cs),
(675,416,o),
(620,479,o),
(536,479,cs),
(452,479,o),
(397,416,o),
(397,345,cs),
(397,274,o),
(452,212,o),
(536,212,cs)
);
},
{
closed = 1;
nodes = (
(620,835,o),
(675,897,o),
(675,968,cs),
(675,1039,o),
(620,1102,o),
(536,1102,cs),
(452,1102,o),
(397,1039,o),
(397,968,cs),
(397,897,o),
(452,835,o),
(536,835,cs)
);
}
);
width = 1061;
}
);
unicode = 247;
},
{
glyphname = equal;
lastChange = "2022-10-14 13:55:51 +0000";
layers = (
{
layerId = master01;
shapes = (
{
closed = 1;
nodes = (
(883,758,l),
(883,909,l),
(176,909,l),
(176,758,l)
);
},
{
closed = 1;
nodes = (
(883,456,l),
(883,607,l),
(176,607,l),
(176,456,l)
);
}
);
width = 1061;
}
);
unicode = 61;
},
{
glyphname = notequal;
lastChange = "2022-10-14 13:55:51 +0000";
layers = (
{
layerId = master01;
shapes = (
{
closed = 1;
nodes = (
(833,1140,l),
(699,1203,l),
(226,221,l),
(360,158,l)
);
},
{
ref = equal;
}
);
width = 1061;
}
);
unicode = 8800;
},
{
glyphname = less;
lastChange = "2022-10-14 13:55:51 +0000";
layers = (
{
layerId = master01;
shapes = (
{
closed = 1;
nodes = (
(724,405,l),
(337,759,l),
(724,1113,l),
(616,1231,l),
(109,759,l),
(616,287,l)
);
}
);
width = 875;
}
);
unicode = 60;
},
{
glyphname = lessequal;
lastChange = "2022-10-14 13:55:51 +0000";
layers = (
{
layerId = master01;
shapes = (
{
closed = 1;
nodes = (
(721,405,l),
(334,759,l),
(721,1113,l),
(613,1231,l),
(106,759,l),
(613,287,l)
);
},
{
closed = 1;
nodes = (
(706,0,l),
(706,168,l),
(168,168,l),
(168,0,l)
);
}
);
width = 875;
}
);
unicode = 8804;
},
{
glyphname = plusminus;
lastChange = "2022-10-14 13:55:51 +0000";
layers = (
{
layerId = master01;
shapes = (
{
closed = 1;
nodes = (
(971,0,l),
(971,151,l),
(264,151,l),
(264,0,l)
);
},
{
pos = (134,0);
ref = plus;
}
);
width = 1239;
}
);
unicode = 177;
},
{
glyphname = logicalnot;
lastChange = "2022-10-14 13:55:51 +0000";
layers = (
{
layerId = master01;
shapes = (
{
closed = 1;
nodes = (
(896,285,l),
(896,699,l),
(153,699,l),
(153,531,l),
(716,531,l),
(716,285,l)
);
}
);
width = 1049;
}
);
unicode = 172;
},
{
glyphname = asciitilde;
lastChange = "2022-10-14 13:55:51 +0000";
layers = (
{
layerId = master01;
shapes = (
{
closed = 1;
nodes = (
(802,680,o),
(916,765,o),
(969,845,c),
(873,965,l),
(813,901,o),
(745,869,o),
(697,869,cs),
(609,869,o),
(517,975,o),
(415,975,cs),
(311,975,o),
(194,890,o),
(139,810,c),
(235,690,l),
(295,754,o),
(363,786,o),
(411,786,cs),
(503,786,o),
(595,680,o),
(704,680,cs)
);
}
);
width = 1110;
}
);
unicode = 126;
},
{
glyphname = asciicircum;
lastChange = "2022-10-14 13:55:51 +0000";
layers = (
{
layerId = master01;
shapes = (
{
closed = 1;
nodes = (
(593,1092,l),
(930,516,l),
(1061,594,l),
(593,1380,l),
(125,594,l),
(256,516,l)
);
}
);
width = 1186;
}
);
unicode = 94;
},
{
glyphname = infinity;
lastChange = "2022-10-14 13:55:51 +0000";
layers = (
{
layerId = master01;
shapes = (
{
closed = 1;
nodes = (
(741,285,o),
(852,343,o),
(934,431,c),
(1016,343,o),
(1136,285,o),
(1285,285,cs),
(1541,285,o),
(1731,436,o),
(1731,644,cs),
(1731,851,o),
(1573,1002,o),
(1317,1002,cs),
(1168,1002,o),
(1057,944,o),
(975,856,c),
(894,944,o),
(772,1002,o),
(624,1002,cs),
(368,1002,o),
(178,851,o),
(178,643,cs),
(178,436,o),
(337,285,o),
(593,285,cs)
);
},
{
closed = 1;
nodes = (
(428,458,o),
(388,564,o),
(388,643,cs),
(388,722,o),
(418,819,o),
(602,819,cs),
(785,819,o),
(835,702,o),
(856,623,c),
(855,547,o),
(755,458,o),
(612,458,cs)
);
},
{
closed = 1;
nodes = (
(1124,468,o),
(1074,585,o),
(1054,664,c),
(1065,740,o),
(1155,829,o),
(1297,829,cs),
(1481,829,o),
(1522,723,o),
(1522,644,cs),
(1522,565,o),
(1491,468,o),
(1308,468,cs)
);
}
);
userData = {
com.typemytype.robofont.guides = (
{
angle = 90;
isGlobal = 0;
magnetic = 5;
x = 677;
y = 0;
}
);
};
width = 1909;
}
);
unicode = 8734;
},
{
glyphname = integral;
lastChange = "2022-10-14 13:55:51 +0000";
layers = (
{
layerId = master01;
shapes = (
{
closed = 1;
nodes = (
(402,-520,o),
(425,-332,o),
(425,-158,cs),
(425,1164,ls),
(425,1280,o),
(443,1345,o),
(548,1345,cs),
(571,1345,o),
(606,1340,o),
(626,1333,c),
(626,1491,l),
(602,1497,o),
(573,1499,o),
(549,1499,cs),
(288,1499,o),
(263,1311,o),
(263,1137,cs),
(263,-185,l),
(263,-301,o),
(247,-366,o),
(141,-366,cs),
(120,-366,o),
(83,-361,o),
(64,-354,c),
(64,-512,l),
(86,-518,o),
(118,-520,o),
(140,-520,cs)
);
}
);
width = 693;
}
);
unicode = 8747;
},
{
glyphname = product;
lastChange = "2022-10-14 13:55:51 +0000";
layers = (
{
anchors = (
{
name = btm;
pos = (542,-170);
},
{
name = top;
pos = (542,1700);
}
);
layerId = master01;
shapes = (
{
closed = 1;
nodes = (
(363,-170,l),
(363,1417,l),
(721,1417,l),
(721,-170,l),
(911,-170,l),
(911,1593,l),
(173,1593,l),
(173,-170,l)
);
}
);
width = 1084;
}
);
unicode = 8719;
},
{
glyphname = summation;
lastChange = "2022-10-14 13:55:51 +0000";
layers = (
{
layerId = master01;
shapes = (
{
closed = 1;
nodes = (
(710,-341,l),
(710,-165,l),
(333,-165,l),
(659,680,l),
(333,1417,l),
(710,1417,l),
(710,1593,l),
(79,1593,l),
(461,680,l),
(71,-341,l)
);
}
);
width = 868;
}
);
unicode = 8721;
},
{
glyphname = radical;
lastChange = "2022-10-14 13:55:51 +0000";
layers = (
{
layerId = master01;
shapes = (
{
closed = 1;
nodes = (
(1105,1701,l),
(909,1701,l),
(557,244,l),
(611,244,l),
(397,850,l),
(80,850,l),
(80,682,l),
(260,682,l),
(595,-203,l)
);
}
);
width = 1089;
}
);
unicode = 8730;
},
{
glyphname = micro;
lastChange = "2022-10-14 13:55:51 +0000";
layers = (
{
layerId = master01;
shapes = (
{
closed = 1;
nodes = (
(361,-354,l),
(361,29,l),
(402,5,o),
(450,-18,o),
(528,-18,cs),
(613,-18,o),
(699,26,o),
(749,85,c),
(900,-20,l),
(900,1062,l),
(718,1062,l),
(718,266,l),
(688,215,o),
(617,163,o),
(544,163,cs),
(430,163,o),
(361,228,o),
(361,373,cs),
(361,1062,l),
(180,1062,l),
(180,-354,l)
);
}
);
width = 1082;
}
);
unicode = 181;
},
{
glyphname = partialdiff;
lastChange = "2022-10-14 13:55:51 +0000";
layers = (
{
layerId = master01;
shapes = (
{
closed = 1;
nodes = (
(721,-19,o),
(872,183,o),
(872,590,cs),
(872,989,o),
(776,1440,o),
(176,1420,c),
(210,1263,l),
(443,1282,o),
(627,1103,o),
(646,930,c),
(582,976,o),
(546,992,o),
(466,992,cs),
(282,992,o),
(102,824,o),
(102,491,cs),
(102,151,o),
(267,-19,o),
(479,-19,cs)
);
},
{
closed = 1;
nodes = (
(388,153,o),
(288,238,o),
(288,491,cs),
(288,736,o),
(388,819,o),
(479,819,cs),
(579,819,o),
(671,732,o),
(671,491,cs),
(671,238,o),
(571,153,o),
(479,153,cs)
);
}
);
userData = {
com.typemytype.robofont.guides = (
{
angle = 90;
isGlobal = 0;
magnetic = 5;
x = 496;
y = 0;
}
);
};
width = 959;
}
);
unicode = 8706;
},
{
glyphname = percent;
lastChange = "2022-10-14 13:55:51 +0000";
layers = (
{
layerId = master01;
shapes = (
{
closed = 1;
nodes = (
(1137,1559,l),
(981,1612,l),
(429,34,l),
(584,-19,l)
);
},
{
closed = 1;
nodes = (
(1340,-19,o),
(1448,91,o),
(1448,346,cs),
(1448,601,o),
(1340,711,o),
(1186,711,cs),
(1032,711,o),
(924,601,o),
(924,346,cs),
(924,91,o),
(1032,-19,o),
(1186,-19,cs)
);
},
{
closed = 1;
nodes = (
(1130,122,o),
(1081,178,o),
(1081,346,cs),
(1081,514,o),
(1130,570,o),
(1186,570,cs),
(1242,570,o),
(1291,514,o),
(1291,346,cs),
(1291,178,o),
(1242,122,o),
(1186,122,cs)
);
},
{
closed = 1;
nodes = (
(592,882,o),
(700,992,o),
(700,1247,cs),
(700,1502,o),
(592,1612,o),
(438,1612,cs),
(284,1612,o),
(175,1502,o),
(175,1247,cs),
(175,992,o),
(284,882,o),
(438,882,cs)
);
},
{
closed = 1;
nodes = (
(381,1023,o),
(333,1079,o),
(333,1247,cs),
(333,1415,o),
(381,1471,o),
(438,1471,cs),
(494,1471,o),
(543,1415,o),
(543,1247,cs),
(543,1079,o),
(494,1023,o),
(438,1023,cs)
);
}
);
userData = {
com.typemytype.robofont.guides = (
{
angle = 0;
isGlobal = 0;
magnetic = 5;
x = 0;
y = 343;
},
{
angle = 90;
isGlobal = 0;
magnetic = 5;
x = 850;
y = 0;
}
);
};
width = 1625;
}
);
unicode = 37;
},
{
glyphname = perthousand;
lastChange = "2022-10-14 13:55:51 +0000";
layers = (
{
layerId = master01;
shapes = (
{
closed = 1;
nodes = (
(1164,1559,l),
(1008,1612,l),
(456,34,l),
(611,-19,l)
);
},
{
closed = 1;
nodes = (
(1340,-19,o),
(1448,91,o),
(1448,346,cs),
(1448,601,o),
(1340,711,o),
(1186,711,cs),
(1032,711,o),
(924,601,o),
(924,346,cs),
(924,91,o),
(1032,-19,o),
(1186,-19,cs)
);
},
{
closed = 1;
nodes = (
(1130,122,o),
(1081,178,o),
(1081,346,cs),
(1081,514,o),
(1130,570,o),
(1186,570,cs),
(1242,570,o),
(1291,514,o),
(1291,346,cs),
(1291,178,o),
(1242,122,o),
(1186,122,cs)
);
},
{
closed = 1;
nodes = (
(592,882,o),
(700,992,o),
(700,1247,cs),
(700,1502,o),
(592,1612,o),
(438,1612,cs),
(284,1612,o),
(175,1502,o),
(175,1247,cs),
(175,992,o),
(284,882,o),
(438,882,cs)
);
},
{
closed = 1;
nodes = (
(381,1023,o),
(333,1079,o),
(333,1247,cs),
(333,1415,o),
(381,1471,o),
(438,1471,cs),
(494,1471,o),
(543,1415,o),
(543,1247,cs),
(543,1079,o),
(494,1023,o),
(438,1023,cs)
);
},
{
closed = 1;
nodes = (
(1977,-19,o),
(2085,91,o),
(2085,346,cs),
(2085,601,o),
(1977,711,o),
(1823,711,cs),
(1669,711,o),
(1561,601,o),
(1561,346,cs),
(1561,91,o),
(1669,-19,o),
(1823,-19,cs)
);
},
{
closed = 1;
nodes = (
(1767,122,o),
(1718,178,o),
(1718,346,cs),
(1718,514,o),
(1767,570,o),
(1823,570,cs),
(1879,570,o),
(1928,514,o),
(1928,346,cs),
(1928,178,o),
(1879,122,o),
(1823,122,cs)
);
}
);
userData = {
com.typemytype.robofont.guides = (
{
angle = 0;
isGlobal = 0;
magnetic = 5;
x = 0;
y = 343;
},
{
angle = 90;
isGlobal = 0;
magnetic = 5;
x = 850;
y = 0;
}
);
};
width = 2253;
}
);
unicode = 8240;
},
{
glyphname = lozenge;
lastChange = "2022-10-14 13:55:51 +0000";
layers = (
{
layerId = master01;
shapes = (
{
closed = 1;
nodes = (
(1061,595,l),
(593,1400,l),
(125,596,l),
(593,-200,l)
);
},
{
closed = 1;
nodes = (
(322,595,l),
(593,1082,l),
(854,595,l),
(593,100,l)
);
}
);
width = 1186;
}
);
unicode = 9674;
},
{
glyphname = dieresiscomb;
lastChange = "2022-10-14 13:55:51 +0000";
layers = (
{
anchors = (
{
name = _top;
pos = (406,1062);
},
{
name = top;
pos = (406,1521);
}
);
layerId = master01;
shapes = (
{
closed = 1;
nodes = (
(667,1273,o),
(718,1331,o),
(718,1397,cs),
(718,1463,o),
(667,1521,o),
(589,1521,cs),
(511,1521,o),
(460,1463,o),
(460,1397,cs),
(460,1331,o),
(511,1273,o),
(589,1273,cs)
);
},
{
closed = 1;
nodes = (
(301,1273,o),
(352,1331,o),
(352,1397,cs),
(352,1463,o),
(301,1521,o),
(223,1521,cs),
(145,1521,o),
(94,1463,o),
(94,1397,cs),
(94,1331,o),
(145,1273,o),
(223,1273,cs)
);
}
);
width = 813;
}
);
unicode = 776;
},
{
glyphname = dotaccentcomb;
lastChange = "2022-10-14 13:55:51 +0000";
layers = (
{
anchors = (
{
name = _top;
pos = (255,1062);
},
{
name = top;
pos = (255,1492);
}
);
layerId = master01;
shapes = (
{
closed = 1;
nodes = (
(333,1244,o),
(384,1302,o),
(384,1368,cs),
(384,1434,o),
(333,1492,o),
(255,1492,cs),
(177,1492,o),
(126,1434,o),
(126,1368,cs),
(126,1302,o),
(177,1244,o),
(255,1244,cs)
);
}
);
width = 510;
}
);
unicode = 775;
},
{
glyphname = gravecomb;
lastChange = "2022-10-14 13:55:51 +0000";
layers = (
{
anchors = (
{
name = _top;
pos = (306,1062);
},
{
name = top;
pos = (306,1631);
}
);
layerId = master01;
shapes = (
{
closed = 1;
nodes = (
(545,1359,l),
(166,1661,l),
(67,1538,l),
(446,1236,l)
);
}
);
width = 668;
}
);
unicode = 768;
},
{
glyphname = acutecomb;
lastChange = "2022-10-14 13:55:51 +0000";
layers = (
{
anchors = (
{
name = _top;
pos = (343,1062);
},
{
name = top;
pos = (343,1631);
}
);
layerId = master01;
shapes = (
{
closed = 1;
nodes = (
(582,1508,l),
(483,1631,l),
(104,1359,l),
(203,1236,l)
);
}
);
width = 668;
}
);
unicode = 769;
},
{
glyphname = hungarumlautcomb;
lastChange = "2022-10-14 13:55:51 +0000";
layers = (
{
anchors = (
{
name = _top;
pos = (634,1062);
},
{
name = top;
pos = (634,1631);
}
);
layerId = master01;
shapes = (
{
closed = 1;
nodes = (
(1027,1538,l),
(928,1641,l),
(629,1319,l),
(708,1236,l)
);
},
{
closed = 1;
nodes = (
(619,1538,l),
(520,1641,l),
(241,1319,l),
(320,1236,l)
);
}
);
width = 1022;
}
);
unicode = 779;
},
{
glyphname = caroncomb.alt;
lastChange = "2022-10-14 13:55:51 +0000";
layers = (
{
anchors = (
{
name = _topright;
pos = (180,1062);
}
);
layerId = master01;
shapes = (
{
closed = 1;
nodes = (
(330,1184,l),
(350,1594,l),
(180,1594,l),
(180,1184,l)
);
}
);
width = 1200;
}
);
},
{
glyphname = circumflexcomb;
lastChange = "2022-10-14 13:55:51 +0000";
layers = (
{
anchors = (
{
name = _top;
pos = (387,1062);
},
{
name = top;
pos = (387,1612);
}
);
layerId = master01;
shapes = (
{
closed = 1;
nodes = (
(387,1405,l),
(588,1244,l),
(680,1352,l),
(387,1590,l),
(94,1352,l),
(186,1244,l)
);
}
);
width = 776;
}
);
unicode = 770;
},
{
glyphname = caroncomb;
lastChange = "2022-10-14 13:55:51 +0000";
layers = (
{
anchors = (
{
name = _top;
pos = (387,1062);
},
{
name = top;
pos = (387,1612);
}
);
layerId = master01;
shapes = (
{
closed = 1;
nodes = (
(680,1482,l),
(588,1590,l),
(387,1429,l),
(186,1590,l),
(94,1482,l),
(387,1244,l)
);
}
);
width = 776;
}
);
unicode = 780;
},
{
glyphname = brevecomb;
lastChange = "2022-10-14 13:55:51 +0000";
layers = (
{
anchors = (
{
name = _top;
pos = (387,1062);
},
{
name = top;
pos = (387,1592);
}
);
layerId = master01;
shapes = (
{
closed = 1;
nodes = (
(616,1244,o),
(696,1414,o),
(683,1565,c),
(558,1565,l),
(526,1442,o),
(472,1399,o),
(387,1399,cs),
(302,1399,o),
(248,1442,o),
(216,1565,c),
(91,1565,l),
(78,1414,o),
(158,1244,o),
(387,1244,cs)
);
}
);
width = 776;
}
);
unicode = 774;
},
{
glyphname = ringcomb;
lastChange = "2022-10-14 13:55:51 +0000";
layers = (
{
anchors = (
{
name = _top;
pos = (345,1062);
},
{
name = top;
pos = (465,1636);
}
);
layerId = master01;
shapes = (
{
closed = 1;
nodes = (
(465,1244,o),
(573,1338,o),
(573,1476,cs),
(573,1614,o),
(465,1708,o),
(345,1708,cs),
(225,1708,o),
(117,1614,o),
(117,1476,cs),
(117,1338,o),
(225,1244,o),
(345,1244,cs)
);
},
{
closed = 1;
nodes = (
(285,1371,o),
(246,1407,o),
(246,1476,cs),
(246,1545,o),
(285,1581,o),
(345,1581,cs),
(405,1581,o),
(444,1545,o),
(444,1476,cs),
(444,1407,o),
(405,1371,o),
(345,1371,cs)
);
}
);
width = 686;
}
);
unicode = 778;
},
{
glyphname = tildecomb;
lastChange = "2022-10-14 13:55:51 +0000";
layers = (
{
anchors = (
{
name = _top;
pos = (428,1062);
},
{
name = top;
pos = (428,1504);
}
);
layerId = master01;
shapes = (
{
closed = 1;
nodes = (
(223,1300,o),
(277,1320,o),
(315,1320,cs),
(389,1320,o),
(451,1244,o),
(554,1244,cs),
(630,1244,o),
(716,1319,o),
(756,1389,c),
(680,1486,l),
(633,1430,o),
(579,1410,o),
(541,1410,cs),
(467,1410,o),
(405,1486,o),
(302,1486,cs),
(226,1486,o),
(140,1411,o),
(100,1341,c),
(176,1244,l)
);
}
);
userData = {
com.typemytype.robofont.guides = (
{
angle = 0;
isGlobal = 0;
magnetic = 5;
x = 0;
y = 1222;
}
);
};
width = 854;
}
);
unicode = 771;
},
{
glyphname = macroncomb;
lastChange = "2022-10-14 13:55:51 +0000";
layers = (
{
anchors = (
{
name = _top;
pos = (407,1062);
},
{
name = top;
pos = (407,1517);
}
);
layerId = master01;
shapes = (
{
closed = 1;
nodes = (
(649,1289,l),
(648,1447,l),
(166,1447,l),
(165,1289,l)
);
}
);
width = 851;
}
);
unicode = 772;
},
{
glyphname = hookabovecomb;
lastChange = "2022-10-14 13:55:51 +0000";
layers = (
{
anchors = (
{
name = _top;
pos = (334,1062);
},
{
name = top;
pos = (334,1613);
}
);
layerId = master01;
shapes = (
{
closed = 1;
nodes = (
(431,1182,o),
(518,1243,o),
(518,1351,cs),
(518,1481,o),
(391,1592,o),
(186,1613,c),
(150,1477,l),
(273,1466,o),
(350,1419,o),
(350,1356,cs),
(350,1313,o),
(312,1281,o),
(242,1281,c),
(242,1165,l)
);
}
);
width = 668;
}
);
metricRight = "=|";
unicode = 777;
},
{
glyphname = dblgravecomb;
lastChange = "2022-10-14 13:55:51 +0000";
layers = (
{
anchors = (
{
name = _top;
pos = (511,1062);
},
{
name = top;
pos = (511,1641);
}
);
layerId = master01;
shapes = (
{
closed = 1;
nodes = (
(516,1319,l),
(217,1641,l),
(118,1538,l),
(437,1236,l)
);
},
{
closed = 1;
nodes = (
(904,1319,l),
(625,1641,l),
(526,1538,l),
(825,1236,l)
);
}
);
width = 1200;
}
);
unicode = 783;
},
{
glyphname = breveinvertedcomb;
lastChange = "2022-10-14 13:55:51 +0000";
layers = (
{
anchors = (
{
name = _top;
pos = (387,1062);
},
{
name = top;
pos = (387,1587);
}
);
layerId = master01;
shapes = (
{
closed = 1;
nodes = (
(216,1266,l),
(248,1389,o),
(302,1432,o),
(387,1432,cs),
(472,1432,o),
(526,1389,o),
(558,1266,c),
(683,1266,l),
(696,1417,o),
(616,1587,o),
(387,1587,cs),
(158,1587,o),
(78,1417,o),
(91,1266,c)
);
}
);
width = 774;
}
);
metricRight = "=|";
unicode = 785;
},
{
glyphname = commaturnedabovecomb;
lastChange = "2022-10-14 13:55:51 +0000";
layers = (
{
anchors = (
{
name = _top;
pos = (247,1062);
},
{
name = top;
pos = (247,1716);
}
);
layerId = master01;
shapes = (
{
closed = 1;
nodes = (
(320,1184,o),
(365,1236,o),
(365,1295,cs),
(365,1350,o),
(325,1399,o),
(262,1404,c),
(274,1448,o),
(318,1510,o),
(365,1553,c),
(292,1624,l),
(183,1510,o),
(129,1410,o),
(129,1324,c),
(129,1231,o),
(186,1184,o),
(250,1184,cs)
);
}
);
width = 475;
}
);
unicode = 786;
},
{
glyphname = horncomb;
lastChange = "2022-10-14 13:55:51 +0000";
layers = (
{
anchors = (
{
name = _topright;
pos = (217,695);
}
);
layerId = master01;
shapes = (
{
closed = 1;
nodes = (
(451,576,o),
(637,633,o),
(637,859,cs),
(637,916,o),
(627,975,o),
(607,1034,c),
(411,1035,l),
(436,990,o),
(456,939,o),
(456,880,cs),
(456,766,o),
(389,695,o),
(217,695,c),
(312,576,l)
);
}
);
width = 1200;
}
);
unicode = 795;
},
{
glyphname = dotbelowcomb;
lastChange = "2022-10-14 13:55:51 +0000";
layers = (
{
anchors = (
{
name = _bottom;
pos = (255,0);
},
{
name = bottom;
pos = (255,-382);
}
);
layerId = master01;
shapes = (
{
closed = 1;
nodes = (
(333,-382,o),
(384,-324,o),
(384,-258,cs),
(384,-192,o),
(333,-134,o),
(255,-134,cs),
(177,-134,o),
(126,-192,o),
(126,-258,cs),
(126,-324,o),
(177,-382,o),
(255,-382,cs)
);
}
);
width = 510;
}
);
unicode = 803;
},
{
glyphname = dieresisbelowcomb;
lastChange = "2022-10-14 13:55:51 +0000";
layers = (
{
anchors = (
{
name = _bottom;
pos = (406,0);
},
{
name = bottom;
pos = (406,-382);
}
);
layerId = master01;
shapes = (
{
closed = 1;
nodes = (
(667,-382,o),
(718,-324,o),
(718,-258,cs),
(718,-192,o),
(667,-134,o),
(589,-134,cs),
(511,-134,o),
(460,-192,o),
(460,-258,cs),
(460,-324,o),
(511,-382,o),
(589,-382,cs)
);
},
{
closed = 1;
nodes = (
(301,-382,o),
(352,-324,o),
(352,-258,cs),
(352,-192,o),
(301,-134,o),
(223,-134,cs),
(145,-134,o),
(94,-192,o),
(94,-258,cs),
(94,-324,o),
(145,-382,o),
(223,-382,cs)
);
}
);
width = 813;
}
);
unicode = 804;
},
{
glyphname = commaaccentcomb;
lastChange = "2022-10-14 13:55:51 +0000";
layers = (
{
anchors = (
{
name = _bottom;
pos = (223,0);
},
{
name = bottom;
pos = (223,-503);
}
);
layerId = master01;
shapes = (
{
closed = 1;
nodes = (
(293,-393,o),
(352,-298,o),
(352,-215,c),
(352,-126,o),
(290,-81,o),
(219,-81,cs),
(143,-81,o),
(94,-131,o),
(94,-188,cs),
(94,-240,o),
(138,-287,o),
(206,-293,c),
(194,-335,o),
(145,-393,o),
(94,-436,c),
(173,-503,l)
);
}
);
width = 449;
}
);
unicode = 806;
},
{
glyphname = cedillacomb;
lastChange = "2022-10-14 13:55:51 +0000";
layers = (
{
anchors = (
{
name = _bottom;
pos = (311,0);
},
{
name = bottom;
pos = (311,-531);
}
);
layerId = master01;
shapes = (
{
closed = 1;
nodes = (
(369,-510,o),
(496,-399,o),
(496,-269,cs),
(496,-161,o),
(409,-100,o),
(315,-83,c),
(387,63,l),
(250,63,l),
(125,-216,l),
(155,-205,o),
(190,-199,o),
(220,-199,cs),
(290,-199,o),
(328,-231,o),
(328,-274,cs),
(328,-337,o),
(251,-384,o),
(128,-395,c),
(164,-531,l)
);
}
);
userData = {
com.typemytype.robofont.guides = (
{
angle = 0;
isGlobal = 0;
magnetic = 5;
x = 0;
y = -280;
}
);
};
width = 676;
}
);
unicode = 807;
},
{
glyphname = ogonekcomb;
lastChange = "2022-10-14 13:55:51 +0000";
layers = (
{
anchors = (
{
name = _ogonek;
pos = (788,53);
}
);
layerId = master01;
shapes = (
{
closed = 1;
nodes = (
(787,-365,l),
(663,-376,o),
(602,-316,o),
(591,-255,cs),
(571,-132,o),
(627,-55,o),
(788,53,c),
(658,53,l),
(482,0,o),
(368,-170,o),
(394,-308,cs),
(422,-464,o),
(578,-534,o),
(786,-506,c)
);
}
);
width = 1200;
}
);
unicode = 808;
},
{
glyphname = brevebelowcomb;
lastChange = "2022-10-14 13:55:51 +0000";
layers = (
{
anchors = (
{
name = _bottom;
pos = (387,0);
},
{
name = bottom;
pos = (387,-436);
}
);
layerId = master01;
shapes = (
{
closed = 1;
nodes = (
(616,-436,o),
(696,-266,o),
(683,-115,c),
(558,-115,l),
(526,-238,o),
(472,-281,o),
(387,-281,cs),
(302,-281,o),
(248,-238,o),
(216,-115,c),
(91,-115,l),
(78,-266,o),
(158,-436,o),
(387,-436,cs)
);
}
);
width = 776;
}
);
unicode = 814;
},
{
glyphname = macronbelowcomb;
lastChange = "2022-10-14 13:55:51 +0000";
layers = (
{
anchors = (
{
name = _bottom;
pos = (407,0);
},
{
name = bottom;
pos = (407,-287);
}
);
layerId = master01;
shapes = (
{
closed = 1;
nodes = (
(649,-287,l),
(648,-129,l),
(166,-129,l),
(165,-287,l)
);
}
);
width = 851;
}
);
unicode = 817;
},
{
glyphname = dieresiscomb.case;
lastChange = "2022-10-14 13:55:51 +0000";
layers = (
{
anchors = (
{
name = _top;
pos = (411,1593);
},
{
name = top;
pos = (411,1947);
}
);
layerId = master01;
shapes = (
{
closed = 1;
nodes = (
(677,1699,o),
(728,1757,o),
(728,1823,cs),
(728,1889,o),
(677,1947,o),
(599,1947,cs),
(521,1947,o),
(470,1889,o),
(470,1823,cs),
(470,1757,o),
(521,1699,o),
(599,1699,cs)
);
},
{
closed = 1;
nodes = (
(301,1699,o),
(352,1757,o),
(352,1823,cs),
(352,1889,o),
(301,1947,o),
(223,1947,cs),
(145,1947,o),
(94,1889,o),
(94,1823,cs),
(94,1757,o),
(145,1699,o),
(223,1699,cs)
);
}
);
width = 823;
}
);
},
{
glyphname = dotaccentcomb.case;
lastChange = "2022-10-14 13:55:51 +0000";
layers = (
{
anchors = (
{
name = _top;
pos = (255,1593);
},
{
name = top;
pos = (255,1947);
}
);
layerId = master01;
shapes = (
{
closed = 1;
nodes = (
(333,1699,o),
(384,1757,o),
(384,1823,cs),
(384,1889,o),
(333,1947,o),
(255,1947,cs),
(177,1947,o),
(126,1889,o),
(126,1823,cs),
(126,1757,o),
(177,1699,o),
(255,1699,cs)
);
}
);
width = 510;
}
);
},
{
glyphname = gravecomb.case;
lastChange = "2022-10-14 13:55:51 +0000";
layers = (
{
anchors = (
{
name = _top;
pos = (307,1593);
},
{
name = top;
pos = (307,2020);
}
);
layerId = master01;
shapes = (
{
closed = 1;
nodes = (
(562,1825,l),
(119,2020,l),
(52,1867,l),
(494,1671,l)
);
}
);
width = 696;
}
);
},
{
glyphname = acutecomb.case;
lastChange = "2022-10-14 13:55:51 +0000";
layers = (
{
anchors = (
{
name = _top;
pos = (307,1593);
},
{
name = top;
pos = (307,2020);
}
);
layerId = master01;
shapes = (
{
closed = 1;
nodes = (
(562,1867,l),
(495,2020,l),
(52,1825,l),
(120,1671,l)
);
}
);
width = 696;
}
);
},
{
glyphname = hungarumlautcomb.case;
lastChange = "2022-10-14 13:55:51 +0000";
layers = (
{
anchors = (
{
name = _top;
pos = (624,1593);
},
{
name = top;
pos = (624,2020);
}
);
layerId = master01;
shapes = (
{
closed = 1;
nodes = (
(1017,1917,l),
(918,2020,l),
(619,1738,l),
(698,1655,l)
);
},
{
closed = 1;
nodes = (
(609,1917,l),
(510,2020,l),
(231,1738,l),
(310,1655,l)
);
}
);
width = 1022;
}
);
},
{
glyphname = circumflexcomb.case;
lastChange = "2022-10-14 13:55:51 +0000";
layers = (
{
anchors = (
{
name = _top;
pos = (388,1593);
},
{
name = top;
pos = (388,2020);
}
);
layerId = master01;
shapes = (
{
closed = 1;
nodes = (
(388,1840,l),
(628,1719,l),
(704,1857,l),
(388,2020,l),
(72,1857,l),
(148,1719,l)
);
}
);
width = 776;
}
);
},
{
glyphname = caroncomb.case;
lastChange = "2022-10-14 13:55:51 +0000";
layers = (
{
anchors = (
{
name = _top;
pos = (388,1593);
},
{
name = top;
pos = (388,2020);
}
);
layerId = master01;
shapes = (
{
closed = 1;
nodes = (
(704,1882,l),
(628,2020,l),
(388,1899,l),
(148,2020,l),
(72,1882,l),
(388,1719,l)
);
}
);
width = 776;
}
);
},
{
glyphname = brevecomb.case;
lastChange = "2022-10-14 13:55:51 +0000";
layers = (
{
anchors = (
{
name = _top;
pos = (387,1593);
},
{
name = top;
pos = (387,1989);
}
);
layerId = master01;
shapes = (
{
closed = 1;
nodes = (
(606,1678,o),
(696,1838,o),
(683,1989,c),
(558,1989,l),
(526,1866,o),
(472,1833,o),
(387,1833,cs),
(302,1833,o),
(248,1866,o),
(216,1989,c),
(91,1989,l),
(78,1838,o),
(168,1678,o),
(387,1678,cs)
);
}
);
width = 776;
}
);
},
{
glyphname = ringcomb.case;
lastChange = "2022-10-14 13:55:51 +0000";
layers = (
{
anchors = (
{
name = _top;
pos = (345,1643);
},
{
name = top;
pos = (345,2070);
}
);
layerId = master01;
shapes = (
{
closed = 1;
nodes = (
(465,1626,o),
(573,1710,o),
(573,1848,cs),
(573,1986,o),
(465,2070,o),
(345,2070,cs),
(225,2070,o),
(117,1986,o),
(117,1848,cs),
(117,1710,o),
(225,1626,o),
(345,1626,cs)
);
},
{
closed = 1;
nodes = (
(285,1748,o),
(246,1779,o),
(246,1848,cs),
(246,1917,o),
(285,1946,o),
(345,1946,cs),
(405,1946,o),
(444,1917,o),
(444,1848,cs),
(444,1779,o),
(405,1748,o),
(345,1748,cs)
);
}
);
width = 686;
}
);
},
{
glyphname = tildecomb.case;
lastChange = "2022-10-14 13:55:51 +0000";
layers = (
{
anchors = (
{
name = _top;
pos = (428,1593);
},
{
name = top;
pos = (428,1959);
}
);
layerId = master01;
shapes = (
{
closed = 1;
nodes = (
(223,1773,o),
(277,1793,o),
(315,1793,cs),
(389,1793,o),
(451,1717,o),
(554,1717,cs),
(630,1717,o),
(716,1792,o),
(756,1862,c),
(680,1959,l),
(633,1903,o),
(579,1883,o),
(541,1883,cs),
(467,1883,o),
(405,1959,o),
(302,1959,cs),
(226,1959,o),
(140,1884,o),
(100,1814,c),
(176,1717,l)
);
}
);
width = 854;
}
);
},
{
glyphname = macroncomb.case;
lastChange = "2022-10-14 13:55:51 +0000";
layers = (
{
anchors = (
{
name = _top;
pos = (407,1593);
},
{
name = top;
pos = (407,1859);
}
);
layerId = master01;
shapes = (
{
closed = 1;
nodes = (
(649,1701,l),
(648,1859,l),
(166,1859,l),
(165,1701,l)
);
}
);
width = 851;
}
);
},
{
glyphname = hookabovecomb.case;
lastChange = "2022-10-14 13:55:51 +0000";
layers = (
{
anchors = (
{
name = _top;
pos = (334,1062);
},
{
name = top;
pos = (334,1613);
}
);
layerId = master01;
shapes = (
{
closed = 1;
nodes = (
(242,1281,l),
(312,1281,o),
(350,1313,o),
(350,1356,cs),
(350,1419,o),
(273,1466,o),
(150,1477,c),
(186,1613,l),
(391,1592,o),
(518,1481,o),
(518,1351,cs),
(518,1243,o),
(431,1182,o),
(242,1165,c)
);
},
{
closed = 1;
nodes = (
(431,1182,o),
(518,1243,o),
(518,1351,cs),
(518,1481,o),
(391,1592,o),
(186,1613,c),
(150,1477,l),
(273,1466,o),
(350,1419,o),
(350,1356,cs),
(350,1313,o),
(312,1281,o),
(242,1281,c),
(242,1165,l)
);
}
);
width = 1200;
}
);
},
{
glyphname = dblgravecomb.case;
lastChange = "2022-10-14 13:55:51 +0000";
layers = (
{
anchors = (
{
name = _top;
pos = (511,1062);
},
{
name = top;
pos = (511,1641);
}
);
layerId = master01;
shapes = (
{
closed = 1;
nodes = (
(516,1319,l),
(217,1641,l),
(118,1538,l),
(437,1236,l)
);
},
{
closed = 1;
nodes = (
(904,1319,l),
(625,1641,l),
(526,1538,l),
(825,1236,l)
);
}
);
width = 1200;
}
);
},
{
glyphname = breveinvertedcomb.case;
lastChange = "2022-10-14 13:55:51 +0000";
layers = (
{
anchors = (
{
name = _top;
pos = (387,1062);
},
{
name = top;
pos = (387,1587);
}
);
layerId = master01;
shapes = (
{
closed = 1;
nodes = (
(216,1266,l),
(248,1389,o),
(302,1432,o),
(387,1432,cs),
(472,1432,o),
(526,1389,o),
(558,1266,c),
(683,1266,l),
(696,1417,o),
(616,1587,o),
(387,1587,cs),
(158,1587,o),
(78,1417,o),
(91,1266,c)
);
}
);
width = 1200;
}
);
},
{
glyphname = commaturnedabovecomb.case;
lastChange = "2022-10-14 13:55:51 +0000";
layers = (
{
anchors = (
{
name = _top;
pos = (247,1062);
},
{
name = top;
pos = (247,1716);
}
);
layerId = master01;
shapes = (
{
closed = 1;
nodes = (
(320,1184,o),
(365,1236,o),
(365,1295,cs),
(365,1350,o),
(325,1399,o),
(262,1404,c),
(274,1448,o),
(318,1510,o),
(365,1553,c),
(292,1624,l),
(183,1510,o),
(129,1410,o),
(129,1324,c),
(129,1231,o),
(186,1184,o),
(250,1184,cs)
);
}
);
width = 1200;
}
);
},
{
glyphname = horncomb.case;
lastChange = "2022-10-14 13:55:51 +0000";
layers = (
{
anchors = (
{
name = _topright;
pos = (217,1064);
}
);
layerId = master01;
shapes = (
{
closed = 1;
nodes = (
(481,945,o),
(667,1002,o),
(667,1228,cs),
(667,1285,o),
(657,1344,o),
(637,1403,c),
(441,1404,l),
(466,1359,o),
(486,1308,o),
(486,1249,cs),
(486,1135,o),
(419,1064,o),
(217,1064,c),
(312,945,l)
);
}
);
width = 1200;
}
);
},
{
glyphname = dotbelowcomb.case;
lastChange = "2022-10-14 13:55:51 +0000";
layers = (
{
anchors = (
{
name = _bottom;
pos = (255,0);
},
{
name = bottom;
pos = (255,-382);
}
);
layerId = master01;
shapes = (
{
closed = 1;
nodes = (
(333,-382,o),
(384,-324,o),
(384,-258,cs),
(384,-192,o),
(333,-134,o),
(255,-134,cs),
(177,-134,o),
(126,-192,o),
(126,-258,cs),
(126,-324,o),
(177,-382,o),
(255,-382,cs)
);
}
);
width = 510;
}
);
},
{
glyphname = dieresisbelowcomb.case;
lastChange = "2022-10-14 13:55:51 +0000";
layers = (
{
anchors = (
{
name = _bottom;
pos = (406,0);
},
{
name = bottom;
pos = (406,-382);
}
);
layerId = master01;
shapes = (
{
closed = 1;
nodes = (
(667,-382,o),
(718,-324,o),
(718,-258,cs),
(718,-192,o),
(667,-134,o),
(589,-134,cs),
(511,-134,o),
(460,-192,o),
(460,-258,cs),
(460,-324,o),
(511,-382,o),
(589,-382,cs)
);
},
{
closed = 1;
nodes = (
(301,-382,o),
(352,-324,o),
(352,-258,cs),
(352,-192,o),
(301,-134,o),
(223,-134,cs),
(145,-134,o),
(94,-192,o),
(94,-258,cs),
(94,-324,o),
(145,-382,o),
(223,-382,cs)
);
}
);
width = 813;
}
);
},
{
glyphname = commaaccentcomb.case;
lastChange = "2022-10-14 13:55:51 +0000";
layers = (
{
anchors = (
{
name = _bottom;
pos = (223,0);
},
{
name = bottom;
pos = (223,-503);
}
);
layerId = master01;
shapes = (
{
closed = 1;
nodes = (
(293,-393,o),
(352,-298,o),
(352,-215,c),
(352,-126,o),
(290,-81,o),
(219,-81,cs),
(143,-81,o),
(94,-131,o),
(94,-188,cs),
(94,-240,o),
(138,-287,o),
(206,-293,c),
(194,-335,o),
(145,-393,o),
(94,-436,c),
(173,-503,l)
);
}
);
width = 449;
}
);
},
{
glyphname = cedillacomb.case;
lastChange = "2022-10-14 13:55:51 +0000";
layers = (
{
anchors = (
{
name = _bottom;
pos = (311,0);
},
{
name = bottom;
pos = (311,-531);
}
);
layerId = master01;
shapes = (
{
closed = 1;
nodes = (
(369,-510,o),
(496,-399,o),
(496,-269,cs),
(496,-161,o),
(409,-100,o),
(315,-83,c),
(387,63,l),
(250,63,l),
(125,-216,l),
(155,-205,o),
(190,-199,o),
(220,-199,cs),
(290,-199,o),
(328,-231,o),
(328,-274,cs),
(328,-337,o),
(251,-384,o),
(128,-395,c),
(164,-531,l)
);
}
);
width = 1200;
}
);
},
{
glyphname = ogonekcomb.case;
lastChange = "2022-10-14 13:55:51 +0000";
layers = (
{
anchors = (
{
name = _ogonek;
pos = (788,53);
}
);
layerId = master01;
shapes = (
{
closed = 1;
nodes = (
(787,-365,l),
(663,-376,o),
(602,-316,o),
(591,-255,cs),
(571,-132,o),
(627,-55,o),
(788,53,c),
(658,53,l),
(482,0,o),
(368,-170,o),
(394,-308,cs),
(422,-464,o),
(578,-534,o),
(786,-506,c)
);
}
);
width = 1200;
}
);
},
{
glyphname = brevebelowcomb.case;
lastChange = "2022-10-14 13:55:51 +0000";
layers = (
{
anchors = (
{
name = _bottom;
pos = (387,0);
},
{
name = bottom;
pos = (387,-436);
}
);
layerId = master01;
shapes = (
{
closed = 1;
nodes = (
(616,-436,o),
(696,-266,o),
(683,-115,c),
(558,-115,l),
(526,-238,o),
(472,-281,o),
(387,-281,cs),
(302,-281,o),
(248,-238,o),
(216,-115,c),
(91,-115,l),
(78,-266,o),
(158,-436,o),
(387,-436,cs)
);
}
);
width = 1200;
}
);
},
{
glyphname = macronbelowcomb.case;
lastChange = "2022-10-14 13:55:51 +0000";
layers = (
{
anchors = (
{
name = _bottom;
pos = (407,0);
},
{
name = bottom;
pos = (407,-287);
}
);
layerId = master01;
shapes = (
{
closed = 1;
nodes = (
(649,-287,l),
(648,-129,l),
(166,-129,l),
(165,-287,l)
);
}
);
width = 1200;
}
);
},
{
glyphname = dieresis;
lastChange = "2022-10-14 13:55:51 +0000";
layers = (
{
anchors = (
{
name = _top;
pos = (406,1700);
}
);
layerId = master01;
shapes = (
{
closed = 1;
nodes = (
(667,1273,o),
(718,1331,o),
(718,1397,cs),
(718,1463,o),
(667,1521,o),
(589,1521,cs),
(511,1521,o),
(460,1463,o),
(460,1397,cs),
(460,1331,o),
(511,1273,o),
(589,1273,cs)
);
},
{
closed = 1;
nodes = (
(301,1273,o),
(352,1331,o),
(352,1397,cs),
(352,1463,o),
(301,1521,o),
(223,1521,cs),
(145,1521,o),
(94,1463,o),
(94,1397,cs),
(94,1331,o),
(145,1273,o),
(223,1273,cs)
);
}
);
width = 813;
}
);
unicode = 168;
},
{
glyphname = dotaccent;
lastChange = "2022-10-14 13:55:51 +0000";
layers = (
{
anchors = (
{
name = _top;
pos = (255,1700);
}
);
layerId = master01;
shapes = (
{
closed = 1;
nodes = (
(333,1244,o),
(384,1302,o),
(384,1368,cs),
(384,1434,o),
(333,1492,o),
(255,1492,cs),
(177,1492,o),
(126,1434,o),
(126,1368,cs),
(126,1302,o),
(177,1244,o),
(255,1244,cs)
);
}
);
width = 510;
}
);
unicode = 729;
},
{
glyphname = grave;
lastChange = "2022-10-14 13:55:51 +0000";
layers = (
{
anchors = (
{
name = _top;
pos = (333,1700);
}
);
layerId = master01;
shapes = (
{
closed = 1;
nodes = (
(545,1329,l),
(166,1631,l),
(67,1508,l),
(446,1206,l)
);
}
);
width = 668;
}
);
unicode = 96;
},
{
glyphname = acute;
lastChange = "2022-10-14 13:55:51 +0000";
layers = (
{
anchors = (
{
name = _top;
pos = (333,1700);
}
);
layerId = master01;
shapes = (
{
closed = 1;
nodes = (
(582,1508,l),
(483,1631,l),
(104,1329,l),
(203,1206,l)
);
}
);
width = 668;
}
);
unicode = 180;
},
{
glyphname = hungarumlaut;
lastChange = "2022-10-14 13:55:51 +0000";
layers = (
{
anchors = (
{
name = _top;
pos = (527,1700);
}
);
layerId = master01;
shapes = (
{
closed = 1;
nodes = (
(1027,1528,l),
(928,1631,l),
(629,1309,l),
(708,1226,l)
);
},
{
closed = 1;
nodes = (
(619,1528,l),
(520,1631,l),
(241,1309,l),
(320,1226,l)
);
}
);
width = 1022;
}
);
unicode = 733;
},
{
glyphname = circumflex;
lastChange = "2022-10-14 13:55:51 +0000";
layers = (
{
anchors = (
{
name = _top;
pos = (387,1700);
}
);
layerId = master01;
shapes = (
{
closed = 1;
nodes = (
(387,1427,l),
(588,1266,l),
(680,1374,l),
(387,1612,l),
(94,1374,l),
(186,1266,l)
);
}
);
width = 776;
}
);
unicode = 710;
},
{
glyphname = caron;
lastChange = "2022-10-14 13:55:51 +0000";
layers = (
{
anchors = (
{
name = _top;
pos = (387,1700);
}
);
layerId = master01;
shapes = (
{
closed = 1;
nodes = (
(680,1504,l),
(588,1612,l),
(387,1451,l),
(186,1612,l),
(94,1504,l),
(387,1266,l)
);
}
);
width = 776;
}
);
unicode = 711;
},
{
glyphname = breve;
lastChange = "2022-10-14 13:55:51 +0000";
layers = (
{
anchors = (
{
name = _top;
pos = (387,1700);
}
);
layerId = master01;
shapes = (
{
closed = 1;
nodes = (
(616,1271,o),
(696,1441,o),
(683,1592,c),
(558,1592,l),
(526,1469,o),
(472,1426,o),
(387,1426,cs),
(302,1426,o),
(248,1469,o),
(216,1592,c),
(91,1592,l),
(78,1441,o),
(158,1271,o),
(387,1271,cs)
);
}
);
width = 776;
}
);
unicode = 728;
},
{
glyphname = ring;
lastChange = "2022-10-14 13:55:51 +0000";
layers = (
{
anchors = (
{
name = _top;
pos = (345,1700);
}
);
layerId = master01;
shapes = (
{
closed = 1;
nodes = (
(465,1253,o),
(573,1347,o),
(573,1485,cs),
(573,1623,o),
(465,1717,o),
(345,1717,cs),
(225,1717,o),
(117,1623,o),
(117,1485,cs),
(117,1347,o),
(225,1253,o),
(345,1253,cs)
);
},
{
closed = 1;
nodes = (
(285,1380,o),
(246,1416,o),
(246,1485,cs),
(246,1554,o),
(285,1590,o),
(345,1590,cs),
(405,1590,o),
(444,1554,o),
(444,1485,cs),
(444,1416,o),
(405,1380,o),
(345,1380,cs)
);
}
);
width = 686;
}
);
unicode = 730;
},
{
glyphname = tilde;
lastChange = "2022-10-14 13:55:51 +0000";
layers = (
{
anchors = (
{
name = _top;
pos = (428,1700);
}
);
layerId = master01;
shapes = (
{
closed = 1;
nodes = (
(223,1318,o),
(277,1338,o),
(315,1338,cs),
(389,1338,o),
(451,1262,o),
(554,1262,cs),
(630,1262,o),
(716,1337,o),
(756,1407,c),
(680,1504,l),
(633,1448,o),
(579,1428,o),
(541,1428,cs),
(467,1428,o),
(405,1504,o),
(302,1504,cs),
(226,1504,o),
(140,1429,o),
(100,1359,c),
(176,1262,l)
);
}
);
userData = {
com.typemytype.robofont.guides = (
{
angle = 0;
isGlobal = 0;
magnetic = 5;
x = 0;
y = 1222;
}
);
};
width = 854;
}
);
unicode = 732;
},
{
glyphname = macron;
lastChange = "2022-10-14 13:55:51 +0000";
layers = (
{
anchors = (
{
name = _top;
pos = (407,1700);
}
);
layerId = master01;
shapes = (
{
closed = 1;
nodes = (
(649,1359,l),
(648,1517,l),
(166,1517,l),
(165,1359,l)
);
}
);
width = 851;
}
);
unicode = 175;
},
{
glyphname = cedilla;
lastChange = "2022-10-14 13:55:51 +0000";
layers = (
{
anchors = (
{
name = _btm;
pos = (310,-170);
}
);
layerId = master01;
shapes = (
{
closed = 1;
nodes = (
(369,-510,o),
(496,-399,o),
(496,-269,cs),
(496,-161,o),
(409,-100,o),
(315,-83,c),
(387,63,l),
(250,63,l),
(125,-216,l),
(155,-205,o),
(190,-199,o),
(220,-199,cs),
(290,-199,o),
(328,-231,o),
(328,-274,cs),
(328,-337,o),
(251,-384,o),
(128,-395,c),
(164,-531,l)
);
}
);
userData = {
com.typemytype.robofont.guides = (
{
angle = 0;
isGlobal = 0;
magnetic = 5;
x = 0;
y = -280;
}
);
};
width = 676;
}
);
unicode = 184;
},
